<?xml version="1.0" encoding="utf-8"?>
<!-- Generator: Adobe Illustrator 22.0.1, SVG Export Plug-In . SVG Version: 6.00 Build 0)  -->
<svg version="1.1" id="Layer_1" xmlns="http://www.w3.org/2000/svg" xmlns:xlink="http://www.w3.org/1999/xlink" x="0px" y="0px"
	 viewBox="0 0 512 512" style="enable-background:new 0 0 512 512;" xml:space="preserve">
<g>
	<path d="M465.9,134.9C444.8,98,413.6,67,377,46c-36.6-21.3-78.7-32.5-121.1-32.5c-42.1,0-84.5,11.2-121.4,32.5
		c-36.4,21.1-67.6,52-88.9,88.9C24.6,171.5,13.1,213.6,13.1,256s11.4,84.5,32.5,121.4c21.3,36.4,52.5,67.6,88.9,88.6
		c36.9,21.1,79.3,32.5,121.4,32.5c42.4,0,84.5-11.4,121.1-32.5c36.6-20.8,67.8-52.3,88.9-88.6c21.3-36.9,32.2-79,32.5-121.4
		C498.4,213.6,487.2,171.5,465.9,134.9z M437.3,362.6c-18.5,30.7-44.7,57.4-76.1,75.4c-32.2,18.5-68.6,28.3-105.3,28.3
		s-73.6-9.9-105.3-28.1C118.9,420,92.1,393,73.4,361.3C55.2,329.5,45.3,292.6,45.3,256c0-36.4,9.9-73.3,28.1-105.3
		c18.7-31.4,45.5-58.5,77.2-76.9s68.6-28.1,105.3-28.1c36.9,0,73.2,9.7,105.3,28.1c31.4,18.5,57.7,45,76.1,76.1
		c18.7,32,28.6,69.4,28.6,106C465.9,293.2,456,330.3,437.3,362.6z"/>
	<g>
		<path d="M190.4,279.1v171.3l8.8,2.9c15.6,3.1,31.7,6.8,47.6,7.5h4.9V279.1l0,0L190.4,279.1L190.4,279.1z"/>
		<path d="M78.4,153.6c-8.8,15.6-16.4,32-20.5,49.7l-3.6,14.6h75.1V94.9c-2.1,1.3-4.2,3.1-6.5,4.9
			C104.9,114.3,89.3,133.1,78.4,153.6z"/>
		<path d="M129.3,417.4L129.3,417.4L129.3,417.4z"/>
		<path d="M52.1,279.1c0.3,2.9,0.8,5.5,1,8.3c3.9,24.9,12,49.9,25.2,70.9c12.2,20,26.2,39,44.5,54.1l6.5,4.9V279.1
			C129.3,279.1,52.1,279.1,52.1,279.1z"/>
		<path d="M199.2,59l-8.8,2.6v156.2h61.3l0,0V51.2c-1.6,0-3.4,0-4.9,0.3C230.9,52.2,214.8,55.4,199.2,59z"/>
		<path d="M432.4,152.6C415,122.1,389,96.7,358.3,78.7c-28.6-16.4-60.8-26.3-93.3-27.3c-2.1-0.3-4.7-0.3-7-0.3v409.6h7
			c33.3-0.8,64.7-12.2,93.3-27.6c30.7-16.1,56.7-42.9,74.1-73.8c18.5-31.2,28.1-67.3,28.1-103.4S450.8,183.7,432.4,152.6z
			 M313.3,112.3c0.8-0.3,2.1-0.8,2.9-0.8h29.6l0,0l29.9-0.3c2.3,0,4.9-0.5,7.5,0c1,0.3,2.3,0.8,3.1,1.8c0.8,1,0.8,2.3,0.3,3.6
			c-0.3,1-1.6,2.3-3.1,2.6c-1.3,0.8-3.6,0-5.5,0l-61.3,0.3c-1,0-2.6,0-3.6-0.5c-0.8-0.3-1.6-1.6-1.6-2.6
			C311.2,114.9,312,113,313.3,112.3z M386.6,130.2c-0.3,1.6-1.6,2.1-3.1,2.9c-1.3,0.5-3.6,0-5.5,0h-61.3c-1,0-2.6,0-3.6-0.8
			c-0.8-0.3-1.6-1.3-1.6-2.1c-0.3-1.6,0.8-3.1,1.8-3.9c0.8-0.8,2.1-0.8,2.9-0.8h29.6l0,0l29.9-0.5c2.3,0,4.9-0.5,7.5,0
			c1,0,2.3,0.8,3.1,2.1C387.1,128.1,387.1,129.2,386.6,130.2z M271.5,221.4c-0.5-1.8,0.3-3.6,1.3-5.5c0.8-1.8,2.3-3.6,3.6-5.2
			c2.1-1.8,4.3-3.4,6.8-4.7c2.1-1.6,3.9-2.9,5.5-4.9c1-1.6,2.1-3.4,1.8-4.9c-0.5-1.6-1.3-2.3-2.1-3.4c-1.3-0.3-3.1-0.3-4.7,0.5
			c-1.3,0.8-2.1,2.1-3.1,2.9c-2.1,2.3-5.5,2.9-8.8,2.6c-3-0.3-5.7-1.8-7.5-4.2c-1.8-2.1-2.6-5.2-2.9-8.1c-0.5-3.9-0.5-7.5,0.8-10.9
			c0.8-3.1,2.3-6.5,4.9-8.3c2.6-1.8,5.7-2.3,8.6-1.8c2.3,0,4.2,1.3,6.5,2.1c1.3,0.8,2.3,1.6,3.6,1.3c1.3-0.5,2.6-1.8,2.6-2.9
			c0.3-1.6-0.8-2.6-2.1-3.9c-1.8-0.8-3.6-1.6-5.5-2.1c-2.1-0.8-3.9-1.3-5.7-2.9c-1.8-1.8-2.9-3.9-2.9-6.8c0-2.6,1.3-4.9,3.4-6
			c2.1-1.6,4.7-1.3,7.5-0.8c3.1,0.8,6.5,1.3,8.8,3.1c3.4,1,5.5,3.4,8.1,5.2c1.3,1.3,2.6,2.6,3.9,4.2c-0.5,1.3-0.8,2.9-1,4.4
			c-0.3,2.9,0.3,6.2,1.8,9.1c1,2.9,1.8,6.5,4.7,7.8l8.1,4.9l0,0c-1.3,0.5-2.1,1.3-3.4,2.1c-2.6,1.3-4.4,4.2-6,6.8
			c-1.6,2.6-3.1,4.9-3.1,7.5c0.5,2.3,0.5,4.7,1.8,6.2l2.6,2.1L287.6,221c-2.6,2.1-4.9,4.2-7.8,4.9c-1.8,0.8-3.9,0.8-5.5,0
			C273,224.8,271.7,223.3,271.5,221.4z M432.4,231.6c-4.7,7-10.9,12.8-18.2,16.9c-6,3.4-12.5,5.5-19,6.5c-5.2,0.8-10.1,0.8-15.3,0.8
			l-42.9,0.5c-2.3,0-4.4,0-7.3,0.3c-1.8,0-3.1,0.8-3.9,1.8c-0.8,0.8-0.8,1.8-0.3,2.9c0.3,1.3,1.8,1.6,2.9,2.1
			c1.8,0.3,3.4,0.5,5.2,0.3l37.4-1c4.4,0,8.8,0,13.5,0.8c5.5,0.3,10.9,1.6,15.9,4.7c4.9,2.6,9.1,6.5,12.7,10.9
			c3.6,4.9,6,10.4,7.5,16.4c1.6,5.3,1.8,10.9,0.8,16.4c-1,5.7-3.9,11.2-8.1,15.9c-4.4,4.7-9.4,8.3-15.6,10.9
			c-4.2,1.3-8.6,2.9-12.7,3.1c-3.4,0.3-7,0-10.1,0l-39.5,0.3c-1.8,0-4.2,0-6,0.5c-1.6,0.5-2.9,0.8-3.6,1.8c-0.3,0.8-0.3,2.6,0,3.1
			c0.8,1.6,2.6,1.8,3.9,2.3c2.1,0.3,3.9,0.3,5.7,0.3h26.8c2.6,0,5.5,0.5,7.8,0.8c3.6,0.5,7.8,1,10.9,2.6c3.4,1.3,6.3,3.9,8.3,6.8
			c2.3,3.1,3.4,6.5,3.6,10.7c0.5,3.1,0,6.8-1.3,10.1c-1.8,2.9-4.4,5.5-7.3,7c-2.6,1.8-6,3.1-9.1,3.6c-2.6,0.5-5.5,0.5-8.3,0.8
			l-14.8,0.3c-1.3,0-2.6,0-3.6,0.5c-0.5,0.3-1.6,0.8-1.8,1.8c-0.6,0.8-0.4,1.9,0.3,2.6c0.5,1,1.6,1.6,2.6,1.8c2.6,0.8,4.7,0.5,7,0.5
			c2.3,0,5.5-0.5,7.8,0.3c2.9,0.5,5.5,1.6,6.8,3.4c1.8,2.1,2.6,4.7,2.9,7.3c0,1.8,0,3.4-0.3,5.7c-0.3,1.6-1,3.4-2.6,3.9
			c-1,0.8-2.6,1-3.4,0.5c-1.3-0.8-2.1-1.8-2.6-3.4c-0.8-1-1-2.1-2.1-2.9c-1.6-1.8-4.2-2.1-6.5-2.6c-3.4-0.5-6.5,0-9.6,0
			c-3.6,0-6.8-0.8-10.4-1.6c-3.6-1.3-7-3.1-9.6-6c-2.1-2.6-3.9-5.5-4.4-8.8c-0.3-3.1-0.3-6,1.3-8.6c1.3-2.9,3.6-4.9,6.5-6.2
			c3.6-2.1,7.8-2.1,11.7-2.1l20.8-0.3c1.3,0,3.4,0.3,4.9-0.3c0.5-0.8,1.3-2.3,1.3-3.4c-0.5-1-1-2.1-2.1-2.9
			c-1.8-0.8-3.4-0.5-4.9-0.5c-1.3,0-3.1,0-4.4,0.5l-36.1,0.3c-2.9,0-6,0-8.6-0.3c-4.4-1-8.1-3.1-11.7-5.5c-3.9-3.4-7.8-7.8-9.6-12.5
			c-1.8-4.8-2.6-9.9-2.3-15.1c0.5-6,2.3-12,6.3-16.9c2.3-3.4,6-6,10.1-7.8c3.2-1.1,6.5-1.8,9.9-2.3h9.6l44.5-0.5
			c1.6,0,3.4,0,4.9-0.8c0.8-0.3,1.8-1.3,1.8-2.1c0-0.8-0.8-2.1-1.8-2.6c-1-0.8-2.1-0.8-3.6-1.3h-4.7l-47.8,0.5
			c-4.2,0-8.1-0.5-12.2-1c-3.4-0.8-7.3-1.6-10.4-2.9c-3.6-2.1-6.8-4.7-9.6-7.5c-3.9-4.4-7.3-10.1-9.1-16.4
			c-2.6-8.1-3.4-16.6-2.1-24.9c0.8-6,2.1-12.5,5.5-17.4c2.9-4.7,7.3-8.3,11.7-11.7c5.2-3.4,10.7-6.2,16.1-7.8
			c4.2-1,8.6-1.3,13.3-1.8c3.6,0,7-0.3,10.7-0.3l37.9-0.5c1.8,0,3.6-0.3,5.5-0.5c1.6-0.5,3.4-1.3,4.2-2.6c0.5-1.6,0.3-3.6-0.5-4.7
			c-0.8-1-2.6-1.8-3.9-2.3c-1.8-0.3-3.6-0.3-5.5-0.3c-1.8-0.3-3.4,0-5.5,0l-50.2,0.3c-0.8-1-1-2.6-1-3.6c-0.3-2.1,0.3-4.7,1.8-6.5
			c1.3-2.6,4.2-3.9,6.8-5.5c3.4-1.6,7-1.8,10.9-2.3c4.7-0.3,8.8,0,13.3,0c2.9,0,5.5-0.3,8.1-1c1.6-0.5,2.9-0.8,3.4-1.8
			c0.3-0.8,0-1.8-0.5-2.9c-0.8-1.3-1.6-1.8-3.1-2.1c-2.3-0.5-4.9,0-7,0.3c-4.2,0.5-8.3,0.3-12.2,0.3c-3.9,0-7,0.3-10.4-0.5
			c-2.9-0.8-5.5-2.6-8.1-4.9c-2.1-2.1-3.6-4.7-4.7-7.5c-0.3-1.6-0.8-2.9-0.3-4.4l0.5-4.7l0,0h28.6c1.3-1.8,2.9-3.6,4.4-6l6.3-5.7
			h35.6c1.8,0,4.2,0,6.2-0.5c2.6,0,5.2,0,7.3-1c1.6-0.8,2.6-1.8,4.2-2.3c1-1.3,2.1-2.1,3.6-2.6c1.8,0.8,3.6,2.1,5.5,3.1
			c4.9,2.9,9.9,7,13.8,11.7c3.6,4.2,6.8,8.6,9.6,13c3.1,6.5,4.9,13.8,5.7,20.8c1,6.7,1,13.5,0,20.3
			C440.7,215.2,437.6,224,432.4,231.6z"/>
	</g>
</g>
</svg>
