<?xml version="1.0" encoding="utf-8"?>
<!-- Generator: Adobe Illustrator 22.0.1, SVG Export Plug-In . SVG Version: 6.00 Build 0)  -->
<svg version="1.1" id="Layer_1" xmlns="http://www.w3.org/2000/svg" xmlns:xlink="http://www.w3.org/1999/xlink" x="0px" y="0px"
	 viewBox="0 0 512 512" style="enable-background:new 0 0 512 512;" xml:space="preserve">
<g>
	<g>
		<g id="Layer_1_1_">
			<g>
				<g>
					<g>
						<path d="M197.1,231.1c0.5-6.2,8.3-13.2,7.3-19.6c-0.9-5-7.1-9.2-13.3-10.2c-3.6-0.5-15.3-1.5-18-1.6
							c-3.2-0.1-11.6-0.3-14.4-0.3c-2.6,0-9.6-0.1-11.8-0.1c-2.1,0-4.6-0.1-8.1-0.7c-3.4-0.5-5.8-1.3-9.1-2.2
							c-3.3-1.1-5.9-1.8-8.6-2.4s-5.9-1.1-8.2-1.3s-6.9-0.5-10.2-0.7c-3.4,0-11.8,0-14.5,0c-2.6,0-11.1,0.4-13.2,0.4
							c-2.2,0-4.5,0-5.5,0c-1.1,0-0.8,0.5-1.3,0.7c-0.5,0.1-3,0-4.5,0c-1.5,0-2.5,0-3-0.1c-0.5,0-1.2,0-1.2,0s-0.1,0.5,0.4,0.7
							c0.5,0.1,1.7,0.3,2.2,0.3c0.4,0,3.8,0.3,5,0.4c1.2,0,3.3,0,4.6,0.1c1.3,0.1,3.7,0.1,5.3,0.1c1.6,0,7.8,0,10,0
							c2.2,0.1,6.6,0.1,8.7,0.1c2.1,0.1,7.1,0.3,11.1,0.8c4,0.5,7.1,0.9,11.1,1.8c3.8,0.9,8.3,2.4,10.4,3c2.2,0.7,5.3,1.5,6.7,1.8
							c1.6,0.4,3,0.4,3.4,0.8c0.4,0.3,0.4,0.7,0.1,1.2c-0.3,0.5-0.4,0.7-0.7,1.2c-0.1,0.5-0.4,0.8-0.4,0.8h-1.5c0,0,0.3-0.3,0.3-0.5
							s-0.8-0.8-1.7-0.9c-0.9-0.1-4.9-0.5-5.9-0.7s-5-0.5-7.1-0.5s-10.6,0-12.7,0c-2.1,0.1-10-0.1-12,0s-9,0-10.8,0s-6.2,0-8.1,0
							c-1.7,0-7.7,0-9.8,0c-2.1,0-9.2-0.3-10.6-0.1c-1.3,0-5.3-0.1-7.3-0.1c-2,0-8.7-0.3-10.4-0.3c-1.8,0-4.1-0.1-4.8-0.4
							c-0.7-0.3-4.5-2.2-6.1-2.9c-1.6-0.8-4.5-2.2-5.3-2.6s-1.6-0.9-1.8-1.1c-0.3-0.1-1.3,0.9-1.6,1.3s-0.8,0-0.8,0s3.7-4.1,4.5-5
							c0.8-0.9,1.7-2.1,2.1-2.2c0.4-0.1,2-0.1,3,0c0.9,0.1,7.3,0.7,8.5,0.8c1.2,0.1,6.5,0.3,7.9,0.4c1.5,0,8.1,0.1,10.3,0.1
							c2.2,0,9.2,0.3,11.2,0.1c2.1-0.1,7.9-0.7,9.6-0.8c1.8-0.1,7.4-0.5,10-0.5c2.6-0.1,8.1,0,9.8-0.1c1.7-0.1,8.6-0.1,10.8-0.1
							c2.4,0,9,0.3,11.2,0.4c2.2,0,11.9,0.5,14.4,0.7c2.5,0.1,15.1,0.5,17.8,0.7c2.8,0.1,6.9,0.3,9.1,0.1c2.2-0.1,12.7-0.7,15.9-0.7
							c3.2-0.1,11.6-0.3,14.9-0.1c3.4,0.1,11.6,0.9,14.4,1.2c2.8,0.4,5.5,1.1,6.2,1.1c0.8,0,2,0.1,2.5,0.5c0.4,0.4,0.8,1.3,1.7,1.8
							c0.8,0.5,2,0.7,2.4,1.2c0.4,0.5,0.4,1.7,0.7,2.1c0.3,0.5,1.2,2,1.3,3s0,2.9-0.7,4c-0.7,1.2-1.8,2.5-3,3.8
							c-1.2,1.3-3.2,2.6-4.8,4.1c-1.7,1.5-4.5,3.6-5.9,5.5c-1.5,2-2.4,3.3-2.6,5.3c-0.3,2-0.1,3.2-0.3,3.6c-0.1,0.4-0.4,1.2-0.9,1.7
							c-0.5,0.5-2.5,2.9-3.3,3.8c-0.8,0.9-2,2.8-2.2,3.3c-0.3,0.5-0.5,0.9-0.5,0.9l-0.5-0.8c0,0,1.1-1.2,1.2-1.6
							C197,235,196.8,233.5,197.1,231.1"/>
						<path d="M33.5,207.8l0.3-1.2c0,0,3.4,0,4.5,0c1.1,0,7.3,0.3,9.5,0.3s9,0.3,10.7,0.1c1.6-0.1,10.8,0.1,12.8,0.1
							s11.6,0,13.6,0.1c2,0,12.9,0.1,14.7,0.1c1.7,0,10.8,0,12.9,0c2.1,0,11.2,0,13.2,0c2.1,0,7.3,0.1,8.5,0c1.2,0,2.1-0.1,2.2-0.3
							c0.3,0,0.9-0.4,1.5-0.1c0.4,0.3,0.7,0.7,0.8,0.9c0.3,0.3,0.7,0.5,0.8,0.8c0.3,0.1,0.7,0.4,1.1,0.8c0.3,0.4,0.3,0.4,0.8,0.8
							c0.5,0.4,0.5,0.5,0.4,0.8c-0.1,0.3-0.9,1.1-1.2,1.6c-0.3,0.5-0.4,0.9-0.5,1.1c-0.1,0.1-1.2,0.3-1.2,0.3s0.7-0.4,0.5-0.8
							c-0.1-0.4-0.8-1.3-2.2-1.5c-1.5-0.1-5,0.3-6.7,0.4c-1.6,0.1-12.3,1.1-14.3,1.3c-1.8,0.1-16.8,1.2-19.3,1.5
							c-2.5,0.3-14.3,0.9-16.5,1.1c-2.2,0.1-11.1,0.7-13.7,0.8c-2.8,0.1-9,0.4-11.4,0.5c-2.4,0.1-7.1,0.3-8.1,0.1
							c-0.9,0-2.1-0.5-2.6-0.8c-0.7-0.3-4.4-2-5.5-2.5c-1.1-0.5-2.9-1.2-3.3-1.7c-0.4-0.4-0.1-1.2-0.1-1.7c0-0.5,0-1.2-0.7-1.7
							C34.3,208.4,33.5,207.8,33.5,207.8"/>
						<path d="M45.4,222.4v-1.1c0,0,1.6,0,2.4-0.1c0.8-0.1,4.2-0.1,6.3-0.3c2.2-0.1,11-0.5,13.6-0.7c2.8-0.1,15.2-0.8,17.6-1.1
							c2.4-0.1,18.6-1.3,21-1.5c2.2-0.3,15.9-1.3,18-1.5s9.2-0.9,11.8-1.1c2.5-0.3,2.9-0.5,3.3-0.5c0.4,0,0.7-0.3,1.1,0.3
							c0.4,0.5,1.2,1.5,1.7,1.7c0.5,0.4,2.1,1.3,2.1,1.8c0,0.5-0.4,1.2-0.7,1.6c-0.3,0.5-0.3,1.5-0.3,1.5l-1.6,0.3
							c0,0,0.1-0.4,0.1-0.7c0-0.3-0.3-0.9-0.9-1.2c-0.7-0.3-1.8-0.5-2.9-0.3c-1.1,0.3-6.2,1.1-8.2,1.5c-2.1,0.4-14,2.4-16.9,2.8
							c-2.9,0.5-14.4,2.2-17,2.6c-2.8,0.4-13.3,1.7-17,2.1c-3.7,0.4-8.2,0.8-10.7,0.9c-2.5,0.1-5,0.4-6.9,0.1s-5.8-1.5-7.5-1.8
							c-1.7-0.4-4.4-1.2-4.8-1.6c-0.4-0.4-0.7-0.9-0.8-1.5c-0.1-0.5-0.9-1.7-1.5-1.8C46.3,223,45.4,222.4,45.4,222.4"/>
						<path d="M60.3,234.3c0,0,0.7,0.1,1.5,0c0.8-0.1,1.3-0.4,2.2-0.5c0.9,0,3.4-0.1,4.9-0.3c1.5,0,5.7-0.5,7.1-0.7
							c1.5-0.1,8.6-0.8,10.8-1.2c2.2-0.3,14.8-2.1,16.9-2.4c2.1-0.3,12.6-1.8,15.5-2.4c2.9-0.5,12.4-2.2,14.9-2.6
							c2.5-0.5,5.4-0.9,6.5-1.2c1.1-0.3,1.8-0.8,2.5-0.5c0.7,0.1,1.2,0.7,2,1.1s2,0.8,2.6,0.9c0.7,0.3,1.2,0.5,1.3,0.8
							c0.1,0.3,0,1.2-0.3,1.6c-0.3,0.5-0.4,0.8-0.5,1.3c-0.1,0.5-0.1,0.9-0.1,0.9l-1.5,0.5c0,0,0.3-0.7,0-1.1
							c-0.3-0.4-1.1-0.9-1.5-0.9c-0.4,0-1.1,0.1-1.8,0.4c-0.7,0.3-9.8,2.9-11.2,3.4l-10.8,3c-1.3,0.4-9.9,2.5-12.3,3
							c-2.4,0.5-11.4,2.4-13.6,2.8c-2.2,0.4-10.7,1.5-12.8,1.6c-2.1,0.1-2.5,0.3-4.2,0.1c-1.7-0.1-5-0.5-7-0.8
							c-2.1-0.3-4.2-0.8-5-0.9c-0.8-0.1-1.5-0.3-1.8-1.2s-0.3-1.6-0.9-2.2c-0.5-0.7-1.3-1.3-1.7-1.5c-0.5-0.3-1.2-0.3-1.3-0.4
							C60.2,234.8,60.3,234.3,60.3,234.3"/>
						<path d="M78.4,246.6c0,0,6.1-0.7,7.5-0.8c1.3-0.3,10.8-1.6,13.1-2c2.2-0.5,12-2.6,13.7-3c1.7-0.4,12.4-3.2,14.5-3.7
							c2.1-0.5,9.2-2.6,11.2-3.2c2-0.7,7.7-2.4,8.2-2.6c0.7-0.3,1.3-0.8,2-0.7s2.5,0.7,3.2,0.8c0.7,0.3,2.4,0.5,2.8,0.8
							c0.3,0.3,0.4,0.5,0.4,1.1c0,0.5,0,2.9,0,3.2c0,0.3,0.7,0.8,0.7,0.8l-1.6,0.7c-0.4,0.1-1.1,0.4-1.1,0.4s0.1-0.7,0.1-0.9
							c-0.1-0.3-1.1-0.8-1.3-0.8c-0.3-0.1-0.5,0-1.3,0.3c-0.7,0.3-2.5,1.1-3.4,1.5s-6.3,2.5-7.9,3.2s-8.2,3.2-10.3,3.8
							c-2.1,0.8-11.6,4-13.3,4.5c-1.7,0.5-7.9,2.2-9.5,2.6c-1.5,0.4-2.2,0.7-3.4,0.8c-1.2,0-5.9-0.4-7.9-0.7c-2-0.3-7.4-1.1-8.2-1.3
							c-0.8-0.3-1.2-0.5-1.7-1.1c-0.4-0.5-0.8-0.9-1.6-1.3c-0.8-0.4-1.6-0.8-2.2-1.1s-0.9-0.4-1.3-0.5c-0.4-0.1-0.8-0.3-1.1-0.4
							C78.4,246.9,78.4,246.6,78.4,246.6"/>
						<path d="M103.8,257.2c0,0,2-0.5,2.5-0.8c0.5-0.3,3.8-1.2,4.8-1.5c1.1-0.3,4.6-1.2,6.1-1.7s8.6-2.9,10-3.4
							c1.3-0.5,9.8-3.7,11.5-4.2c1.7-0.7,11-4.5,12.4-5c1.3-0.5,2.6-1.1,3.2-1.5c0.5-0.3,2-1.1,2.6-1.2c0.7-0.1,2.1-0.4,2.8-0.4
							c0.7,0,1.1,0,1.3,0.3s0.4,0.7,0.4,1.2c0,0.5,0.1,1.7,0.7,2.2c0.5,0.4,1.5,0.8,2.4,1.1c0.9,0.3,1.8,0.4,2.2,0.4s0.5,0,0.5,0
							s-1.8,1.2-2.4,1.3l-2.5,1.2c0,0-0.1-0.5-0.4-0.7s-1.2-0.1-1.8,0c-0.8,0-1.5,0.4-2.1,0.8c-0.7,0.4-7.1,3.8-8.5,4.5
							c-1.3,0.7-11.2,5.8-12.6,6.5c-1.3,0.7-7.7,3.7-8.7,4.2c-1.1,0.5-1.7,0.9-2.6,0.9c-0.9,0.1-3.2,0.1-5.2,0.1
							c-2,0-5.9-0.1-7.1-0.1s-2.9-0.1-4-0.5c-0.9-0.4-1.1-0.9-1.6-1.6c-0.5-0.7-1.7-1.3-2.2-1.5c-0.5-0.1-1.3-0.3-1.6-0.1
							C103.8,258,103.8,257.2,103.8,257.2"/>
						<path d="M126.8,265.4c0,0,7.7-3.8,8.9-4.4s12.7-6.3,14.1-7.3c1.5-0.8,9.9-5.4,11.8-6.5c1.8-1.1,4.4-2.4,4.8-2.6
							c0.4-0.3,0.7-0.7,1.2-0.8c0.5-0.1,0.8-0.3,0.8-0.3s0.7,0.9,1.1,1.5c0.4,0.5,1.3,1.5,2.4,1.6c1.1,0.1,1.5,0.1,2.1,0.1
							c0.7,0,1.7-0.3,1.7-0.3s-2.8,2.6-3.3,3c-0.5,0.4-6.6,5.4-7.8,6.5c-1.2,1.1-5.7,4.5-6.7,5.4c-1.1,0.8-4.2,3.2-4.9,3.6
							c-0.7,0.4-2.5,1.1-3.6,1.3c-1.1,0.3-6.2,1.3-8.1,1.7c-1.8,0.4-5.8,1.1-6.6,1.1s-1.8,0-2.5-0.7c-0.7-0.7-1.1-1.7-2-2.2
							c-0.9-0.4-1.5-0.7-2.1-0.7C126.9,265.8,126.8,265.4,126.8,265.4"/>
						<path d="M149.3,269.9c0,0,4.2-3,5.2-3.8c0.9-0.8,4.6-3.7,5.7-4.5c1.1-0.8,5.4-4.4,6.9-5.5c1.3-1.1,5.4-4.5,6.5-5.5
							c1.1-0.9,3.2-2.9,3.2-2.9s0.1,0.8,0.5,1.1c0.4,0.3,0.9,0.9,1.7,1.3c0.9,0.4,2.1,0.4,2.9,0.4c0.9,0,1.7-0.1,2.1-0.1
							c0.4,0,0.9,0.1,0.9,0.8c0,0.5,0.1,0.9,0.1,1.2c0,0.3,0.1,0.5,0.1,0.5l-6.2,6.9c-1.2,1.3-4.8,5.2-5.8,6.2
							c-1.1,1.2-4,4.2-4.2,4.5c-0.4,0.3-1.3,0-2-0.3c-0.8-0.5-1.5-0.1-2.4,0.1c-0.9,0.3-2.6,0.8-3.7,1.1c-0.9,0.3-3.7,0.8-4.4,0.8
							c-0.7,0-1.5,0-2-0.5c-0.4-0.5-1.5-1.5-2-1.7c-0.5-0.3-1.1-0.4-1.3-0.3C150.4,269.7,149.4,270.3,149.3,269.9"/>
						<path d="M169.6,271.2c0,0,4.1-4.2,4.9-5.2c0.9-0.9,5.8-6.2,6.9-7.4c1.1-1.2,2.8-3.3,3.3-3.8c0.4-0.5,0.8-0.9,0.9-0.9
							c0.3,0,1.3,0,2.2-0.3c0.9-0.1,2.2-0.5,2.6-0.4c0.4,0.1,0.4,0.4,0.4,0.7c0,0.3,0.1,3.2,0.1,4.1s0,3-0.1,3.7
							c-0.3,0.8-2.4,5-2.9,6.2c-0.5,1.2-2,3.8-2.1,4.4c-0.3,0.5-0.3,0.7-0.5,0.8c-0.1,0.1-0.5-0.4-1.1-1.1c-0.8-0.9-1.5-0.8-2.2-0.5
							c-0.8,0.3-5.2,1.3-5.9,1.5s-2.1,0.5-2.8,0.4c-0.7-0.1-1.1-0.7-1.3-1.2c-0.4-0.5-0.8-0.9-1.2-0.9
							C170,271.3,169.6,271.2,169.6,271.2"/>
						<path d="M189.3,268.1c0,0,1.1-2.4,1.2-2.8c0.3-0.4,0.5-1.2,0.5-1.2s0.3,1.2,0.5,1.8c0.3,0.5,0.8,1.2,1.1,1.8
							c0.1,0.5,1.2,3,1.3,3.4c0.1,0.4,0.5,1.1,0.4,1.5c-0.1,0.4,0,0.7,0.1,1.1c0.1,0.4,0.3,0.7,0,0.8c-0.4,0.1-1.1,0.7-1.3,0.8
							s-0.8,0.1-1.2-0.4c-0.3-0.3-1.1-0.4-1.7-0.9c-0.7-0.5-0.7-0.9-0.5-1.5c0-0.5,0.4-2.5,0.1-3
							C189.7,269.1,189.3,268.1,189.3,268.1"/>
						<path d="M168.8,276.3c0,0,1.2,1.6,2.1,1.6c0.8,0,1.1-0.3,1.5-0.4c0.4-0.1,1.1-0.1,1.3,0c0.3,0.1,0.8,0.7,0.7,1.2
							c0,0.5,0.3,1.6,0.7,2.4c0.4,0.9,2.1,4.5,3.2,6.1c1.1,1.7,4,5.8,5.2,7.4c1.3,1.5,5.4,6.1,6.5,7c1.1,0.9,6.5,5.5,8.5,6.9
							c2,1.3,6.6,4.4,9.4,5.7c2.8,1.5,6.3,3,7.3,3.4c0.9,0.4,1.5,0.4,1.7,0.7c0.1,0.3,0.5,0.5,0.5,0.5l-1.1,1.7l-0.9,1.5l-0.8-0.4
							c0,0,0.5-0.5,0.4-0.9c-0.3-0.4-0.4-0.8-1.1-1.2c-0.7-0.4-3.4-1.5-4.6-2.1c-1.2-0.5-6.5-3.4-8.5-4.6c-1.8-1.2-6.5-4.4-8.7-6.2
							c-2.2-1.7-7-6.5-8.5-8.2c-1.6-1.7-4.9-6.1-5.9-7.7s-3.8-6.7-4.5-8.1c-0.7-1.3-0.9-2.2-1.5-2.8s-0.8-0.7-0.9-0.7
							c-0.3,0-0.8-0.1-0.8-0.1s-0.1-0.4-0.5-1.3C169.1,277.1,168.8,276.3,168.8,276.3"/>
						<path d="M174.6,277.4c0,0,1.2,0,2.1-0.4c0.9-0.4,3.4-1.1,4.4-1.3c1.1-0.3,2.2-0.8,2.6-0.9c0.5-0.1,0.9-0.3,1.2-0.3
							c0.3,0,0.5,0.3,0.8,0.7c0.4,0.5,0.8,1.5,1.2,1.8c0.5,0.4,1.2,1.1,2.1,0.9c0.9-0.1,1.8-0.3,2.6-0.5c0.8-0.4,2.2-1.3,2.5-1.5
							s0.8-0.5,0.9-0.4c0.1,0.1,0.4,0.5,0.7,0.5c0.3,0,0.5,0.4,0.7,0.7c0.1,0.3,2.2,3.3,3.4,4.8c1.2,1.3,2.8,3.2,4,4.4
							c1.2,1.1,4.5,4,5.8,4.9c1.3,0.9,5.2,3.6,6.9,4.4c1.7,0.9,3.8,2,5.5,2.8c1.7,0.7,3.4,1.5,4,1.6c0.5,0.3,0.7,0.5,0.9,0.8
							c0.4,0.3,0.5,0.7,0.4,0.9c-0.1,0.4-2,3.2-2.6,4.5c-0.8,1.5-2.2,3.7-2.8,4.6c-0.5,1.1-2.1,3.4-2.5,4.2
							c-0.4,0.8-1.6,2.6-1.7,2.9c0,0.1-0.4,0.1-0.5,0c-0.1-0.1,0.4-0.7,0.4-1.3s-0.4-1.6-0.8-2c-0.4-0.4-1.5-0.9-2.1-1.2
							c-0.7-0.3-3.6-1.7-5-2.5c-1.5-0.8-4.5-2.5-6.5-3.8c-2-1.3-4.6-3-6.2-4.4c-1.7-1.3-4.1-3.4-5.5-4.9c-1.5-1.5-4-4.2-5.5-6.2
							c-1.6-2-3.6-4.8-4.6-6.6c-1.1-2-2.2-4.4-2.5-4.8c-0.4-0.4-0.9-1.1-1.7-1.3s-1.2-0.4-1.6-0.4c-0.4,0-0.9,0-1.1-0.3
							C174.6,277.5,174.6,277.4,174.6,277.4"/>
						<path d="M140.4,203.4c0,0,6.3,0,8.2,0c1.8,0,7.3,0,7.8,0s1.3,0.3,1.6,0.3l0.5,0.1c0,0,0.3,0.7,0,0.8c-0.3,0.3-0.4,0.9-0.7,1.3
							c-0.1,0.4,0,0.8-0.3,0.9c-0.3,0.1-1.3,0.3-1.3,0.3s0.1-0.5-0.1-0.7c-0.3-0.1-1.1-0.5-1.7-0.4c-0.7,0-3.8,0.4-4.9,0.4
							c-1.1,0.1-3.8,0.5-4.5,0.5c-0.5,0.1-1.2,0-1.6-0.1c-0.4-0.1-2-0.8-2.4-1.2c-0.4-0.4-0.7-0.5-0.8-0.5l-0.7-0.1l0.3-0.8
							C140.1,203.8,140.4,203.4,140.4,203.4"/>
						<path d="M142.3,212.4c0,0,0.7-0.9,0.8-1.1c0.3-0.1,1.7-0.7,2.4-0.8c0.7-0.1,3.4-0.8,4.8-1.2c1.3-0.3,3.7-0.8,4.9-1.1
							c1.2-0.3,2.2-0.7,2.5-0.7c0.4,0,0.9,0.1,1.3,0.4c0.4,0.3,1.1,0.8,1.5,1.1s0.8,0.8,0.7,1.1s-0.3,0.5-0.5,0.8
							c-0.3,0.3-0.1,0.4-0.3,0.7c-0.1,0.3-0.1,0.8-0.1,0.8s-1.1,0.3-1.2,0.4c-0.1,0-0.4,0.1-0.4,0.1s0.3-0.7,0.1-0.8
							c-0.3-0.1-0.9-0.7-1.7-0.8c-0.8,0-2.9,0.5-3.6,0.8c-0.7,0.3-3.3,0.9-4.4,1.2c-1.1,0.3-2,0.8-2.8,0.7c-0.8-0.1-1.5-0.4-2.2-0.8
							c-0.7-0.4-0.9-0.5-1.1-0.7C142.8,212.7,142.3,212.4,142.3,212.4"/>
						<path d="M145,219.5c0,0,0-0.5,0.4-0.8c0.3-0.3,1.1-0.4,1.5-0.7c0.4-0.3,1.6-0.7,2.9-1.1c1.3-0.5,3.8-1.2,4.8-1.5
							c1.1-0.3,3.3-1.1,3.8-1.2c0.5-0.3,1.3-0.7,1.8-0.7s1.6,0.3,2.2,0.5c0.7,0.3,1.2,0.5,1.3,0.9c0.1,0.4-0.1,1.1-0.4,1.3
							c-0.3,0.4-0.3,0.7-0.4,0.9c-0.1,0.3-0.1,0.8-0.1,0.8s-0.4,0.3-0.8,0.4l-0.7,0.1c0,0,0-0.5-0.3-0.8c-0.3-0.4-1.2-0.7-1.7-0.5
							c-0.5,0.1-2.8,1.1-3.6,1.5s-3.2,1.5-4.1,1.8c-0.8,0.4-1.3,0.7-2.2,0.5c-0.8-0.1-1.6-0.3-2.2-0.5c-0.7-0.3-1.5-0.8-1.8-0.8
							C145.6,219.5,145,219.5,145,219.5"/>
						<path d="M150.3,225.3l2.9-1.3c0.9-0.5,4.6-2.1,5.8-2.6c1.2-0.5,3-1.5,3.4-1.6c0.4-0.1,0.8-0.5,1.3-0.5c0.5,0,1.6,0.3,2.1,0.4
							c0.7,0.1,1.5,0.3,1.6,0.7c0.3,0.4,0.3,1.2,0.3,1.3c-0.1,0.3-0.4,1.1-0.3,1.3c0,0.3,0.1,1.1,0.1,1.1l-0.9,0.5
							c-0.4,0.3-1.1,0.5-1.1,0.5s-0.1-0.5-0.5-0.8c-0.4-0.4-1.1-0.5-1.6-0.4c-0.4,0.1-2.5,1.3-3.4,1.8c-0.8,0.5-2.9,1.8-3.2,2
							c-0.4,0.3-0.7,0.7-1.6,0.5c-1.1-0.1-1.5-0.3-2-0.5c-0.5-0.3-1.6-0.9-1.8-1.2c-0.3-0.3-1.3-0.5-1.3-0.8
							C150.2,225.3,150.3,225.3,150.3,225.3"/>
						<path d="M155.6,232.3c0,0,2.9-1.8,4.1-2.6c1.2-0.8,4.2-2.5,5.4-3.2c1.2-0.7,2.4-1.5,2.9-1.6c0.7-0.1,2.1,0,2.9,0
							c0.8,0,1.3,0,1.3,0.4c0.1,0.4,0,0.8-0.1,1.1c0,0.4,0,1.3,0,1.3l-5.8,4.6c-0.9,0.8-3.2,2.8-3.3,2.8s-0.9-0.5-1.8-0.9
							c-0.9-0.4-1.5-0.4-1.8-0.5c-0.4-0.1-0.9-0.4-1.5-0.7c-0.5-0.3-0.8-0.4-1.2-0.4s-1.2,0.3-1.2,0.3L155.6,232.3z"/>
						<path d="M162.6,237.4c0,0,1.5-1.3,2.5-2.2s4.1-3.3,4.9-4.1c0.8-0.7,2.9-2.2,3.2-2.5s0.7-0.3,1.1-0.3c0.4,0,1.3-0.3,1.7-0.3
							c0.4,0,1.1,0,1.2,0.5c0.1,0.5,0.4,1.6,0.3,2c0,0.4,0,0.9,0.1,1.1c0.1,0.3,0.3,0.4,0.3,0.4s-0.4,0.4-0.9,0.9
							c-0.5,0.5-2.4,2.2-3,2.9c-0.8,0.8-2.4,2.2-2.9,2.9c-0.5,0.7-1.5,1.5-1.5,1.5s-0.3-0.9-0.8-1.3c-0.5-0.4-1.7-0.7-2.5-0.7
							c-0.8,0-1.7-0.8-2.1-0.8c-0.4-0.1-0.8,0.1-0.8,0.1S162.7,237.8,162.6,237.4"/>
						<path d="M170,241.7l4-4c0.8-0.8,3.3-3.2,4-3.8c0.7-0.7,1.1-1.2,1.7-1.5c0.7-0.3,1.5-0.7,1.8-0.5c0.4,0.1,0.7,0.7,0.8,1.2
							c0.1,0.5,0.7,1.3,1.6,1.6s1.5,0.4,2,0.4c0.4,0,0.7-0.1,0.7-0.1s-0.9,0.9-1.5,1.5s-2,2-2.9,2.8s-3.2,3-3.8,3.7
							c-0.7,0.7-1.6,1.3-1.6,1.3s0-0.7-0.5-1.1c-0.7-0.7-1.5-0.5-2.2-0.5c-0.8,0-1.2-0.1-1.7-0.5c-0.4-0.4-0.8-0.8-1.1-0.8
							s-0.8,0.3-0.9,0.3C170.7,241.7,170,241.7,170,241.7"/>
						<path d="M177.9,245.3c0,0,2.2-2.1,3.3-3.2c1.1-1.1,3.2-3,4.1-4s2.5-2.5,2.5-2.5s0.4,0.5,1.1,0.5c0.8,0.1,1.6,0.3,2.1,0.3
							s1.6,0,1.8-0.3c0.3-0.3,0.7-0.4,0.7-0.4s-0.5,0.7-1.1,1.5s-2.2,3-3,4.4c-0.9,1.3-2.9,4.4-3.3,4.9c-0.4,0.5-1.1,1.8-1.3,2.1
							c-0.3,0.4-0.5,0.8-0.5,0.8s0.1-0.7-0.5-1.6c-0.5-0.9-0.8-0.9-1.3-1.1s-0.7,0.1-1.3-0.3c-0.7-0.4-1.1-1.1-1.5-1.2
							c-0.4-0.1-0.4-0.1-0.8,0C178.2,245.4,177.9,245.3,177.9,245.3"/>
						<path d="M194.2,237.4c0,0,0.3,0.4,0.5,0.8c0.3,0.4,0.7,0.7,0.5,0.9c0,0.3-1.3,2.6-1.6,3.3c-0.3,0.7-1.2,3.6-1.3,4.4
							c-0.3,0.8-0.5,2.1-0.8,2.8c-0.3,0.7-0.5,0.9-0.5,1.2l-0.1,0.8c0,0-0.5,0.4-0.8,0.4l-0.8,0.3v-0.7c0-0.3-0.4-0.8-0.7-1.2
							c-0.3-0.5-0.5-1.1-0.3-2s0.7-2,1.1-2.8c0.4-0.8,0.5-1.6,1.1-2.8c0.5-1.2,0.9-2.2,1.6-3.2c0.7-0.9,0.9-1.5,1.2-1.8
							C193.8,237.5,194.2,237.4,194.2,237.4"/>
						<path d="M160.1,203.8c0,0,2.6-0.1,4.5-0.1c2,0,4.4,0,5.7,0.3c1.3,0.1,3.4,0.3,4.2,0.3s2-0.1,4-0.1c2,0.1,5.4,0.1,7.8,0.5
							c2.4,0.4,4.5,0.8,6.3,1.5c1.8,0.7,5.4,2.1,6.5,3.4c1.1,1.3,1.8,2.4,1.7,4.1c-0.1,1.7-0.8,3.4-1.3,4.5
							c-0.5,1.1-1.8,3.3-2.1,3.7c-0.3,0.4-2.2,2.2-3,3.2c-0.8,0.9-3.4,3.7-4.5,5c-1.1,1.2-1.8,2.2-2.2,2.6c-0.5,0.5-0.8,0.9-0.8,0.9
							h-0.4c0,0,0.4-0.5,0.3-1.1s-0.5-1.5-1.1-1.7c-0.5-0.3-0.7-0.4-0.9-0.3c-0.4,0.1-0.7,0.3-0.8,0.3c-0.3,0-0.4,0.1-0.4,0.1
							s1.2-1.3,1.7-1.8c0.5-0.5,2-2,2.5-2.4c0.5-0.5,0.9-0.8,1.2-0.8c0.3,0,1.1,0.3,1.6,0c0.5-0.3,1.6-1.3,1.7-2.1
							c0-0.8-0.3-1.5-0.8-1.8c-0.5-0.4-1.2-0.7-1.7-0.7s-1.1,0.1-1.6,0.4c-0.3,0.1-0.7,0.3-0.7,0.3s0-0.4,0.1-0.9
							c0.1-0.5-0.3-1.2-0.5-1.6c-0.3-0.5-0.9-0.8-1.6-0.9c-0.8-0.1-1.1,0.1-1.3-0.1c-0.3-0.3-0.1-0.7-0.3-1.2
							c-0.3-0.5-0.7-1.3-1.3-1.6c-0.7-0.3-1.3-0.4-1.6-0.4c-0.4,0-0.4-0.3-0.4-0.7c0-0.5-0.1-1.7-0.5-2.1c-0.4-0.3-1.1-0.9-1.6-0.9
							c-0.5-0.1-0.8-0.1-0.8-0.4s0.3-0.8,0.3-1.3s-0.1-1.3-0.8-1.8c-0.7-0.4-1.3-0.7-1.6-1.1c-0.3-0.4-0.8-0.9-0.9-0.9
							c-0.1,0-0.7,0-1.1,0c-0.4,0-1.3,0.3-2.1,0.4c-0.7,0.1-1.1,0.3-1.5,0.1c-0.4-0.1-1.2-0.4-1.7-0.4c-0.5,0-1.8,0.1-2.8,0.1
							c-0.9,0.1-1.7,0.3-2.5,0.1c-0.7,0-1.2-0.3-1.8-0.5c-0.5-0.3-0.8-0.4-1.1-0.5c-0.4-0.3-0.5-0.4-0.5-0.4s0-0.3,0.1-0.5
							C159.8,204.1,160.1,203.8,160.1,203.8"/>
						<path d="M161.8,210c0,0,1.8-0.8,3.2-1.2s3.8-1.1,4.9-1.3c1.1-0.3,2-0.5,2.4-0.4c0.4,0.1,0.9,0.1,1.3,0.1h0.7
							c0,0,0.3,0.3,0.1,0.4c-0.1,0.1-0.1,0.3-0.5,0.7c-0.4,0.4-0.7,0.8-1.1,1.1c-0.4,0.1-1.5,0.4-2.6,0.7c-1.2,0.3-2.9,0.9-3.6,1.1
							c-0.7,0.1-0.8,0.4-1.8,0.1c-1.1-0.1-1.3-0.3-1.7-0.4s-0.5,0-0.7,0.1c-0.3,0.1-0.4,0-0.4,0v-0.5
							C161.7,210.3,161.8,210,161.8,210"/>
						<path d="M165,214.8c0,0,1.8-0.9,3.3-1.6c1.6-0.7,4.6-1.7,5.3-2c0.7-0.1,1.3-0.4,1.7-0.1c0.4,0.3,0.7,0.4,0.5,0.8
							c-0.1,0.3-0.7,1.1-0.9,1.2c-0.4,0.3-2.5,1.3-3.3,1.7c-0.8,0.4-2.6,1.3-3.2,1.3s-1.1-0.1-1.7-0.3c-0.5-0.1-0.8-0.3-1.1-0.3
							c-0.3,0-0.8,0-0.8,0s0.1-0.1,0.1-0.4C165,215,165,214.8,165,214.8"/>
						<path d="M168.4,219.9c0,0,2-1.2,2.6-1.6c0.7-0.4,2.9-1.5,3.8-2c0.9-0.5,2-0.9,2.5-0.9s1.1,0.3,1.1,0.5c0,0.3,0,0.8-0.3,1.3
							c-0.3,0.4-0.4,0.8-1.2,1.5c-0.8,0.8-1.5,1.2-2,1.6c-0.5,0.4-1.3,1.1-1.7,1.2c-0.4,0-1.1-0.3-1.3-0.4c-0.4,0-1.3-0.5-1.6-0.7
							s-0.7-0.3-0.9-0.3s-1.2,0.3-1.2,0.3L168.4,219.9z"/>
						<path d="M173.8,224.3c0,0,1.2-1.1,2.1-1.8c0.8-0.7,2.4-1.7,3.2-2.2c0.8-0.5,1.3-0.9,1.6-0.9s0.5,0,0.7,0.3
							c0.1,0.1,0.7,0.1,0.8,0.5c0.1,0.4,0,0.8,0.1,0.9c0.1,0.3,0.5,0.1,0.5,0.4c0.1,0.1,0,0.7,0,0.7s-1.7,1.3-2.2,1.8
							c-0.7,0.5-1.6,1.5-1.8,1.6c-0.3,0.1-1.1-0.4-1.7-0.7c-0.5-0.3-1.7-0.7-2.2-0.7C174.1,224.3,173.8,224.3,173.8,224.3"/>
						<path d="M178.6,227.4c0,0,1.5-1.3,2.1-2s1.5-1.3,2-1.8c0.5-0.5,1.7-1.3,1.7-1.3s0.5,0,0.4,0.4c-0.1,0.3,0.3,0.4,0.5,0.4
							s0.8-0.1,0.9,0c0.1,0,0.4,0.1,0.4,0.5c0,0.4,0,0.7,0.1,0.8c0.1,0,0.5,0,0.5,0.1s0.1,0.4,0.1,0.4s-1.8,1.8-2.6,2.6
							c-0.8,0.8-2.1,2.1-2.2,2.2c-0.1,0.1-0.3,0.4-0.3,0.4s-0.3-0.8-0.9-1.3c-0.7-0.7-0.9-0.8-1.6-0.9
							C179.1,227.4,178.6,227.4,178.6,227.4"/>
						<path d="M189.6,232.2c0,0,1.1-1.3,2.1-2.4l2.4-2.5c0.4-0.4,0.7-0.8,0.7-0.8s-0.7,1.5-0.8,2.2c-0.1,0.7-0.3,2-0.3,2.5
							s-0.3,1.2-0.4,1.8c-0.1,0.7-0.1,1.3-0.1,1.3s-0.5,0.3-0.8,0.4c-0.4,0.1-0.8,0.4-0.8,0.4s0-1.1-0.5-1.6
							c-0.4-0.5-0.5-0.7-0.9-0.9c-0.4-0.3-0.9-0.3-0.9-0.3L189.6,232.2z"/>
						<path d="M214.3,192.8c0,0,1.8-0.7,3.2-1.2c1.2-0.5,7.4-2.6,9.2-3.2c2.4-0.7,7.8-1.8,11-2.4c3.3-0.5,9.8-1.2,16.1-1.2
							c5.4,0,10.4,0.4,13.1,0.8c2.6,0.3,7.9,1.2,10,1.8c2.1,0.5,5.8,1.5,7.8,2.1c2,0.7,5.2,1.7,6.3,2.2c1.2,0.5,2,0.7,2.2,0.9
							c0.1,0.1,0.3,0.5,0.9,0.8c0.7,0.3,1.6,0.7,1.6,0.7s-0.4,0.3-0.8,0.5c-0.5,0.3-1.2,0.5-1.7,0.8c-0.5,0.3-1.1,0.5-1.1,0.5
							s0-0.7-0.3-0.9c-0.3-0.3-1.8-1.1-3.4-1.6c-1.5-0.5-3.8-1.3-6.1-2s-6.2-1.7-8.9-2.2c-2.6-0.5-5.5-0.9-8.1-1.2
							c-2.6-0.3-8.6-0.8-11.6-0.7c-3,0-9,0.4-12,0.8c-2.9,0.4-7.8,1.1-10.6,1.8c-2.8,0.7-6.6,1.6-8.1,2.1c-1.5,0.5-3.3,1.2-3.8,1.3
							c-0.5,0-1.8-0.1-2.2-0.1c-0.4,0-0.8,0-1.1,0c-0.3,0-0.9,0.4-1.2,0.3C214.8,193.1,214.3,192.8,214.3,192.8"/>
						<path d="M306.6,231.4c0,0-0.7-0.8-1.1-1.2c-0.4-0.4-0.5-2.2-0.9-3.3s-2-3.2-2.9-4.1c-0.9-0.9-2.6-2.8-6.2-5
							c-3.3-2.1-6.7-4-10.4-5.4c-3.7-1.5-6.2-2.4-10.7-3.4c-4.4-0.9-10.2-2-16.4-2.2c-6.2-0.3-11.6,0.3-15.2,0.8
							c-3.6,0.5-8.7,1.5-13.5,3c-4.8,1.6-5.9,2.1-7.4,2.9c-1.5,0.7-5,2.5-6.3,3.4c-1.3,0.9-3.4,2.4-4.6,3.2
							c-1.3,0.8-1.6,1.5-2.2,1.3c-1.1-0.3-1.5-1.3-1.5-1.3s0.9-1.2,1.8-2.1c0.9-0.9,3-2.8,4.4-3.8c1.3-1.1,4-3.3,4.4-3.8
							c0.4-0.4,1.6-1.8,1.6-1.8s0.4,0.8,1.1,0.7c0.7-0.3,1.7-1.1,2.4-2c0.7-1.1,1.7-3.4,1.5-5.3c-0.3-2-0.5-3.4-1.1-3.7
							c-0.5-0.4-1.5-1.1-2.1-1.1c-0.7-0.1-0.9,0-1.2-0.1c-0.4-0.1-0.8-0.5-0.8-0.5s1.6-0.7,2.4-0.9c0.7-0.3,3.8-1.5,5.9-2
							s4.4-1.2,7.1-1.7c2.6-0.5,6.6-1.2,9.8-1.5c3.2-0.3,7.3-0.7,9.6-0.5c2.4,0,8.1,0.4,10.3,0.7c2.2,0.3,6.7,0.8,9.4,1.5
							c2.6,0.7,7.7,1.8,9.8,2.6c2.2,0.8,4.8,1.6,5.2,1.8c0.3,0.3,0.5,0.5,0.9,0.8c0.4,0.1,0.8,0.4,0.8,0.4s-1.1,1.2-1.8,2.5
							c-2.1,3.7,0.4,8.3,3.8,10.8c4.5,3.3,12.6,8.3,14,15.9C306.8,228.2,306.6,231.4,306.6,231.4"/>
						<path d="M309.7,227.4c-0.3-2.6-1.8-5.3-3-7c-1.2-1.7-2-3.6-3.3-5.8s-5.2-4.5-7.5-6.2c-1.8-1.3-4.2-4.2-4.2-6.5
							c0-1.1-0.5-2.8-1.8-2c0.3-0.5,0.8-1.1,1.5-1.6c1.2-1.1,3.4-2.5,5.7-3.2c2.1-0.8,7.3-2.1,9.2-2.6c2.1-0.5,7.9-1.5,10.4-1.7
							c2.4-0.1,6.6-0.4,8.7-0.4c2.2,0,6.3,0.3,9.5,0.5c3.3,0.4,7.8,1.1,10.8,1.2c2.9,0.1,8.1,0.3,10.3,0.3c2.2-0.1,6.3-0.3,8.6-0.3
							s10.3-0.3,13.1-0.5c2.6-0.1,10-0.7,12.7-0.8c2.8-0.1,11.1-0.3,13.5-0.3c2.4,0,12.7,0.5,15.3,0.7c2.6,0.1,9.1,0.5,11.5,0.7
							c2.4,0.1,5.8,0.3,7.8,0.4s7.9,0,9.1,0c1.3,0,5.8,0,8.2-0.1c2.5-0.1,9-0.7,11.4-0.8c2.4-0.3,8.6-0.8,10.4-0.9
							c2-0.1,4-0.4,4.8-0.3c0.8,0.1,1.8,0.8,2.1,1.1c0.3,0.3,1.5,1.6,2.2,2.5c0.8,0.9,1.7,2,1.8,2.2c0.1,0.4,0.7,1.1,0.5,1.3
							s-0.3,0.8-0.5,0.9c-0.3,0.1-1.7,0.8-1.7,0.8s-0.1-0.7-0.5-0.8c-0.5-0.3-1.3-0.5-1.8-0.3c-0.7,0.3-2.5,1.1-3.7,1.6
							c-1.2,0.5-3,1.3-4,1.5c-0.9,0.1-4.4,0.3-6.6,0.3s-9,0.1-11.9,0.1c-2.9,0.1-12.7,0.1-14.8,0.3c-2.1,0-11.1,0.1-13.9,0.1
							c-2.9,0-10.8,0.1-13.5,0.1c-2.6,0-14.1,0.1-16.6,0.1c-2.5,0-9.6,0-11.6,0.1c-2,0-4.5,0.1-7,0.3c-2.5,0.1-5.9,0.5-7,0.7
							c-1.1,0-2.4-0.1-2.8-0.3c-0.5-0.1-0.5-0.3-0.8-0.3s-1.2-0.1-1.2-0.1l-0.1-0.4c0,0,1.1-0.3,2-0.4c0.9-0.3,1.7-0.7,3.3-0.9
							c1.6-0.4,5.7-1.1,7.7-1.5c2-0.4,11.1-2,13.7-2.2c2.6-0.4,9.5-1.1,11.9-1.3c2.4-0.1,9.2-0.7,11.6-0.8s7.8-0.4,9.1-0.4
							c1.3,0,5.9,0.1,7.8,0.3s2.8,0.1,2.8,0.1l0.4-1.2c0,0-2-0.1-3.6-0.3c-1.6-0.1-5.8-0.1-7.3-0.1c-1.5,0-6.5,0-8.5,0.1
							c-1.8,0.1-4.6-0.3-6.9-0.3c-2.6-0.1-8.7,0-11.2,0.1s-9.5,0.9-11.8,1.2c-2.2,0.3-9.9,1.3-13.3,2c-3.6,0.7-9,1.7-11.5,2.2
							c-2.5,0.5-5.8,1.2-8.7,1.5c-2.9,0.3-8.9,0.4-11,0.4c-2.1,0-8.6-0.1-11.8-0.1s-8.6,0-11.8,0.4c-3.2,0.4-5.8,0.9-7.4,1.6
							c-1.6,0.5-3.3,1.2-4.4,2c-1.1,0.8-1.6,1.7-1.6,2s0.1,0.5,0.1,0.5l0.8,0.3c0,0-0.8,0.7-1.3,1.1c-0.5,0.4-0.9,1.3-1.2,2.1
							c-0.1,0.8-0.4,2.8-0.5,3.6c0,0.8-0.1,1.2,0.1,1.8c0.3,0.7,1.6,2.9,2.1,4c0.5,0.9,1.8,3.2,2.2,3.8c0.4,0.7,1.1,1.6,1.6,2.4
							c0.5,0.8,1.3,2.6,1.5,3.2c0.1,0.7,0.1,1.5,0.1,2.4v4.4c0,0.7-0.1,1.3-0.3,1.5s-0.5,0.5-0.5,0.9s-0.3,1.2-0.4,1.6
							c-0.1,0.4-0.4,1.3-0.4,1.3s-0.5-1.1-0.5-1.2c0-0.1,0.3-1.1,0.1-2.2C312,235.6,310.1,231.5,309.7,227.4"/>
						<path d="M308.5,209.3c0,0,0.5-0.8,2-1.8c1.2-0.8,3.2-1.7,4.4-2.1c1.2-0.4,5.7-1.3,7.7-1.6c2-0.1,7.4-0.3,9.2-0.3
							s5.2,0.1,6.3,0c1.2,0,2.8,0,4,0s3.6,0,4.2,0c0.7,0,2.1-0.1,2.5,0c0.4,0.1,1.2,0.3,1.2,0.5c0.1,0.3,0.1,0.5,0,0.9
							c-0.3,0.4-0.1,0.8-0.1,0.9v0.3c0,0-0.3,0.1-0.5,0.3c-0.3,0.1-1.3,0.8-1.3,0.8s0-0.3-0.3-0.7c-0.3-0.4-0.8-0.8-1.3-0.9
							c-0.5-0.1-2.2-0.3-2.9-0.3c-0.8,0-2.5-0.1-3.2-0.1c-0.7,0-1.1-0.1-1.3-0.1c-0.4,0-0.7,0-0.9,0.3s-0.4,0.4-0.5,0.4
							s-0.5,0-0.7,0s-0.4,0.1,0.1,0.7c0.7,0.7,1.6,0.7,2.4,0.8s2,0.4,2.9,0.5c0.9,0.1,2.1,0.4,2.8,0.5c0.8,0.1,1.5,0.1,1.7,0.3
							c0.3,0,0.8,0.3,0.7,0.5c0,0.3-0.1,0.5-0.3,0.8c-0.1,0.3-0.1,0.7,0,0.9c0,0.3,0,0.4-0.3,0.5c-0.3,0.1-1.1,0.4-1.2,0.5
							c-0.1,0.1-0.5,0-0.5,0s0.1-0.5,0-0.7s-0.4-0.4-1.1-0.7c-0.7-0.3-2.4-0.7-3.2-0.8c-0.8-0.1-2.2-0.5-3-0.7
							c-0.9-0.1-1.5-0.4-1.7-0.3c-0.3,0.3-0.4,0.4-0.5,0.5c-0.1,0-0.4-0.1-0.7,0c-0.1,0.1-0.4,0.4-0.3,0.5c0.1,0.3,0.8,0.5,1.3,0.8
							c0.7,0.3,2.6,0.8,3.4,1.1c0.9,0.3,2.4,0.9,3.2,1.1s1.7,0.4,1.8,0.9c0.1,0.4,0.1,0.9-0.1,1.2c-0.3,0.3-0.4,0.7-0.4,0.8
							c-0.1,0.1-0.1,0.7-0.1,0.7s-0.8,0.5-0.9,0.5l-0.8,0.3c0,0,0.3-0.4,0-0.9c-0.3-0.5-0.9-0.9-1.7-1.3c-0.9-0.4-2.6-1.1-3.3-1.3
							c-0.7-0.3-2.9-1.1-3.3-1.3c-0.5-0.1-1.1-0.4-1.6-0.3c-0.5,0.1-0.7,0.4-0.5,0.7c0.1,0.3,0.5,0.4,0.5,0.7s0,0.5-0.1,0.5
							S332,214,332,214s1.2,0.8,2,1.2c0.8,0.4,2.6,1.5,3.2,1.7c0.5,0.3,2.1,1.1,2.5,1.3c0.4,0.3,1.2,0.7,1.1,1.1
							c-0.1,0.4-0.3,0.9-0.4,1.2c-0.1,0.3,0.1,0.4-0.3,0.5c-0.4,0.1-1.6,0.5-1.6,0.5s0-0.3-0.1-0.5c-0.1-0.1-0.3-0.5-0.9-0.9
							c-0.7-0.4-3-1.8-3.7-2.1c-0.7-0.3-2.1-1.1-2.5-1.5c-0.4-0.3-1.2-1.1-1.5-1.2c-0.3-0.1-0.9-0.5-1.3,0c-0.3,0.3-0.5,0.9-0.3,1.2
							c0.3,0.3,0.7,0.7,0.7,0.7s-0.4,0.3-0.4,0.5c0.1,0.1,1.2,0.9,2,1.5c0.8,0.5,2.9,2,3.4,2.4s1.7,1.1,2.1,1.5
							c0.4,0.4,0.5,0.7,0.1,0.9c-0.3,0.3-0.4,0.7-0.4,0.7s0,0.4,0,0.5c0,0.1,0,0.4,0,0.4s-0.1,0.1-0.7,0.3c-0.4,0.1-1.1,0.1-1.1,0.1
							s-0.1-0.3-0.1-0.5c0-0.3-0.3-0.5-0.7-0.9c-0.5-0.5-2.2-1.6-3-2.2c-0.8-0.5-2.4-1.6-2.8-2c-0.4-0.4-1.1-1.3-1.5-1.7
							c-0.4-0.3-0.9-0.7-1.3-0.5s-0.9,0.5-0.9,0.9c0,0.4-0.1,0.7,0.1,0.9c0.3,0.3,0.7,0.4,0.7,0.5c0,0.1-0.4,0.3-0.4,0.5
							c0.1,0.3,1.5,1.3,2.1,1.8c0.7,0.5,2.8,2.2,3.3,2.8s1.6,1.5,1.7,1.8c0.1,0.4,0.1,1.2-0.1,1.5c-0.1,0.3-0.7,0.4-1.1,0.4
							c-0.4,0.1-1.1,0.1-1.1,0.1s0.3-0.5,0.1-0.7c-0.1-0.3-1.1-0.8-1.7-1.3c-0.7-0.5-2.8-2.4-3.6-3c-0.8-0.7-1.6-1.5-1.8-2.1
							c-0.3-0.5-0.8-1.3-1.5-1.3c-0.7,0-1.3,0.1-1.7,0.7c-0.4,0.5-0.4,1.1-0.1,1.3c0.3,0.3,0.8,0.5,0.7,0.7l-0.7,0.4
							c0,0,0.7,0.4,1.5,1.1c0.9,0.8,2.5,2.1,3.2,2.6c0.7,0.5,1.8,1.7,2.1,2c0.3,0.3,0.5,0.8,0.5,1.2c0,0.4-0.1,1.1-0.3,1.2
							c-0.1,0.3,0,0.4-0.3,0.5c-0.4,0.1-0.9,0.1-1.2,0.1c-0.3,0-0.4-0.1-0.4-0.1s0.5-0.4,0.5-0.7c0-0.1-0.8-0.9-1.2-1.3
							c-0.5-0.4-2.8-2.4-3.6-3.2c-0.8-0.8-2-2-2.4-2.8c-0.3-0.8-0.3-1.7-0.7-2.2c-0.4-0.7-1.5-1.3-1.8-2s-1.8-2.9-2.5-4.2
							c-0.7-1.3-1.3-2.4-1.6-3.6c-0.1-1.2,0-1.8-0.3-2.2c-0.3-0.4-0.7-0.9-0.9-0.9C309.3,209.5,308.5,209.3,308.5,209.3"/>
						<path d="M313.9,226.1c0,0,1.8,2.1,2.4,2.5c0.5,0.4,1.5,1.1,1.7,1.2c0.3,0.1,1.5,1.3,1.7,1.7c0.3,0.4,1.1,1.1,1.1,1.5
							c0,0.4-0.4,1.6-0.7,1.8s-0.7,0.7-1.1,0.7c-0.3,0-0.9-0.1-0.9-0.1s0.8-0.1,0.8-0.5c0-0.3-0.1-0.5-0.7-1.1
							c-0.5-0.5-0.8-0.8-1.3-1.5c-0.5-0.8-1.1-1.6-1.1-1.6l-0.4,0.1h-0.4c0,0-0.1-1.3-0.3-2c-0.1-0.7-0.4-1.3-0.5-1.6
							C314,226.9,313.9,226.1,313.9,226.1"/>
						<path d="M313.6,241.5c0,0,0.5-1.1,0.5-1.6c0-0.4,0.3-1.2,0.4-1.5l0.1-0.5c0,0,0.9,1.2,1.2,1.5c0.3,0.4,1.2,1.1,1.5,1.6
							c0.4,0.5,1.8,2.4,2.5,3.3c0.7,0.9,2.5,3.3,2.8,3.8c0.4,0.5,1.3,2,1.3,2.4c0,0.4-0.1,0.9-0.3,1.3c-0.3,0.4-0.4,0.8-0.7,0.9
							c-0.3,0-1.2,0.1-1.2,0.1s0.3-0.4,0.3-0.7s-0.4-0.9-1.1-1.3c-0.7-0.4-1.8-0.9-2.1-1.3c-0.3-0.3-1.1-2.5-1.5-3.3
							c-0.5-0.9-1.3-2.5-1.8-3.2c-0.5-0.7-0.8-1.5-1.1-1.5c-0.3,0-0.1,0.1-0.4,0.1C313.9,241.6,313.6,241.5,313.6,241.5"/>
						<path d="M315.2,236.4c0,0,1.2,0.4,2,0.4c0.7,0,1.2,0,1.5,0c0.1-0.1,0.5-0.7,1.2-0.8s1.3,0,2.1,0.4c0.7,0.5,4.1,3.8,4.5,4.4
							c0.5,0.5,2.6,2.6,3.4,3.2c0.7,0.7,1.7,1.7,2,2.1c0.3,0.4,0.3,0.8,0.1,1.1c-0.1,0.3-0.4,0.4-0.5,0.7c-0.1,0.3-0.1,0.9-0.4,1.2
							c-0.1,0.3-0.4,0.4-0.9,0.4c-0.5,0-0.9,0-0.9,0s0.5-0.3,0.5-0.7s-0.1-0.8-0.7-1.1c-0.5-0.3-0.9-0.5-1.7-0.9
							c-0.7-0.4-1.3-0.9-1.7-1.5c-0.5-0.5-1.7-2.1-2.2-2.8c-0.5-0.7-2-2.4-2.6-3c-0.7-0.7-1.3-1.2-2.1-1.3c-0.8-0.1-1.1-0.3-1.2-0.3
							c-0.1,0-0.5,0.5-0.4,0.7s-0.3-0.3-0.7-0.7C316,237.6,315.2,236.4,315.2,236.4"/>
						<path d="M321.7,234.8c0,0,0.1-0.3,0.1-0.5c0-0.4,0.1-0.8,0.3-0.8c0.1,0,1.1,0.4,1.6,0.4s0.7-0.1,0.7-0.1s0.3-0.5,1.1-0.7
							c0.7-0.1,0.9-0.1,1.2-0.1s0.5-0.1,1.3,0.3c0.8,0.3,2.8,2,3.6,2.6c0.8,0.7,4,3,4.8,3.8c0.9,0.7,1.8,1.3,2.1,1.6
							c0.3,0.3,1.2,1.1,0.9,1.5c-0.3,0.4-0.7,0.8-0.8,1.2c-0.1,0.4-0.1,0.9-0.1,1.2c-0.1,0.3-0.5,0.4-0.8,0.3c-0.3,0-0.9,0-0.9,0
							s0.4-0.3,0.5-0.5s-0.1-0.5-0.5-0.8c-0.4-0.3-0.9-0.7-1.7-1.1c-0.7-0.4-1.7-1.2-2.6-2c-0.9-0.7-3.2-2.8-3.7-3.3
							c-0.5-0.5-2.1-1.8-2.5-2c-0.4-0.1-1.6-0.4-2-0.5c-0.4-0.1-1.1-0.3-1.1-0.3s-0.3,0.4-0.4,0.4c-0.3,0-0.3,0-0.3,0s0,0-0.3-0.3
							C321.8,235.1,321.7,234.8,321.7,234.8"/>
						<path d="M327.2,231.4v-0.7c0,0,0.4-0.1,1.1-0.1c0.5,0,1.1,0,1.7-0.3c0.7-0.3,0.7-0.1,1.1-0.4c0.4-0.3,0.7-0.4,1.1-0.7
							c0.4-0.3,0.4-0.7,0.7-0.7c0.3,0,1.1-0.1,1.3,0c0.3,0.1,2,1.6,2.9,2.1c1.1,0.7,4.1,2.5,5.2,3.2c1.2,0.7,2.9,1.6,3.4,2.1
							c0.5,0.5,0.9,0.8,0.9,1.2c0,0.5-0.4,0.8-0.7,1.2c-0.3,0.4-0.1,0.7-0.3,1.1c-0.1,0.3-0.3,0.7-0.3,0.7l-1.5,0.3
							c0,0,0.4-0.4,0.3-0.7c0-0.4-0.3-0.8-0.9-1.1c-0.7-0.4-1.5-0.4-2.1-0.7c-0.7-0.3-1.8-1.1-2.5-1.6c-0.7-0.5-2.5-1.8-3.3-2.5
							c-0.8-0.5-2.1-1.6-2.6-1.8c-0.7-0.3-1.7-0.5-2.4-0.5s-1.5,0-1.6,0s-0.4,0.7-0.7,0.5c-0.3-0.3-0.4-0.3-0.7-0.5
							C327.2,231.5,327.2,231.4,327.2,231.4"/>
						<path d="M335.7,226.8c0,0,0.9-0.1,1.1-0.5s0.1-1.3,0.1-1.7c0.1-0.4,0-0.7,0.3-0.7c0.1,0,0.7,0.3,1.1,0.3s0.9,0,1.7,0.4
							c0.7,0.4,3.7,2,5.3,2.6c1.6,0.7,4.8,2.4,5.7,2.6c0.9,0.4,2.6,0.9,2.8,1.5c0.3,0.4,0.4,0.9,0.1,1.3c-0.3,0.4-0.5,0.7-0.4,0.9
							c0.1,0.3,0.4,0.7,0.1,0.8c-0.3,0.1-0.8,0.3-1.2,0.4s-0.8,0.1-0.8,0.1s0.4-0.3,0.3-0.7c-0.1-0.4-0.4-0.9-1.1-1.1
							c-0.7-0.1-1.5-0.3-2.1-0.4c-0.7-0.1-1.2-0.4-2.2-1.1c-0.9-0.5-2.9-1.7-4-2.2c-1.1-0.5-2.9-1.6-3.7-2c-0.7-0.4-0.9-0.7-1.2-0.8
							c-0.4-0.1-0.8-0.1-1.1,0C336.5,226.9,335.7,226.8,335.7,226.8"/>
						<path d="M341.4,221.4c0,0,0.1-0.5,0.3-1.2c0.1-0.7,0-0.9,0.1-0.9c0.3-0.1,0.5,0.1,0.9,0c0.4,0,0.9,0,1.2,0.1
							c0.3,0.1,1.8,0.8,2.5,1.1c0.8,0.3,4.6,1.7,5.8,2.1c1.3,0.5,3.6,1.3,4.6,1.7c1.1,0.4,1.7,0.5,2.1,0.8c0.4,0.4,0.7,0.8,0.7,1.5
							c0,0.7,0.1,0.9-0.1,1.2c-0.3,0.4-0.4,0.4-0.4,0.7c0,0.1,0.3,0.5,0,0.8c-0.1,0.3-0.4,0.3-1.1,0.4s-0.9,0.1-0.9,0.1
							s0.5-0.5,0-0.9c-0.5-0.4-0.7-0.7-1.7-1.1c-1.1-0.4-2.8-1.1-3.6-1.5c-0.8-0.3-4.1-1.8-5-2.1c-0.9-0.4-2.9-1.1-3.6-1.5
							c-0.7-0.4-0.9-0.5-1.2-0.8C342,221.4,341.4,221.4,341.4,221.4"/>
						<path d="M345.6,215.7c0,0,0-1.6,0.1-1.7c0.3-0.1,0.9,0.1,1.2,0.1c0.3,0,1.2,0,2,0.1c0.8,0.3,5,1.3,6.7,1.6
							c1.7,0.4,4,0.9,5.4,1.2c1.5,0.3,2.4,0.3,2.6,0.8c0.3,0.5,0.3,1.6,0.3,2.1c0,0.5,0.1,1.8,0,2s-0.8,0.5-1.3,0.7
							s-0.7,0.3-0.7,0.3s0.3-0.7-0.1-1.1c-0.3-0.4-1.6-0.9-2.5-1.2c-0.9-0.3-3.4-1.1-4.8-1.5c-1.3-0.4-3.7-1.2-4.5-1.3
							c-0.8-0.3-1.7-0.4-2.2-0.8c-0.5-0.4-1.1-0.9-1.3-1.1C346.1,215.8,345.6,215.7,345.6,215.7"/>
						<path d="M348.6,209.6V209c0,0,0.8-0.8,0.9-0.8c0.3,0,0.8-0.1,1.6,0c0.8,0.1,4.5,0.5,5.8,0.8c1.5,0.3,5.2,0.8,6.2,0.9
							c1.1,0.1,2.8,0,3.3,0.1c0.9,0.3,0.8,1.1,0.8,1.6s0.1,1.5,0.1,1.7c0,0.3-0.5,0.7-1.1,1.1c-0.5,0.4-1.1,0.7-1.3,0.9
							c-0.3,0.1,0.1-0.7-0.3-1.1c-0.3-0.3-0.8-0.5-1.6-0.7c-0.8-0.1-2.2-0.5-3-0.7c-0.8-0.1-4-0.8-5.2-1.1c-1.2-0.3-2.6-0.4-3.6-0.8
							c-0.8-0.4-1.3-1.1-1.8-1.3C349.2,209.7,348.6,209.6,348.6,209.6"/>
						<path d="M351.2,205.3c0,0-0.3-0.7-0.3-0.8s0-0.4,0-0.4s1.3,0.1,2.4-0.1c0.9-0.1,3.7-0.7,5.5-0.9c1.7-0.3,5.2-0.9,6.2-1.1
							c1.1-0.1,2.5-0.4,2.9-0.3c0.5,0.3,0.8,0.7,0.9,1.2c0.1,0.5,0.4,1.5,0.5,2c0.1,0.4,0.5,1.1,0.4,1.3c0,0.3-0.7,0.9-1.1,1.3
							c-0.4,0.4-1.5,1.3-1.5,1.3s0.1-0.8-0.1-1.2c-0.3-0.5-0.9-1.1-1.7-1.3c-0.8-0.3-4-0.5-5-0.4c-1.1,0-3.8,0-5.2,0
							c-1.3,0-2.5-0.3-3-0.5c-0.5-0.3-0.4-0.1-0.7-0.3C351.4,205,351.2,205.3,351.2,205.3"/>
						<path d="M369.3,208.8c0,0,1.3-1.5,1.6-1.8c0.4-0.4,0.7-0.9,0.9-0.9s1.1,0,1.6-0.1c0.7-0.3,5.3-0.3,6.5-0.3s9.6,0,11.4,0
							c1.8,0,13.7-0.1,15.6-0.1c2,0,10.6,0,12.7,0c2.2-0.1,12.8,0,15.3-0.1c2.5-0.1,15.7-0.1,17.8-0.3c2.2,0,12.4-0.3,14.3-0.3
							s5.5-0.1,6.6-0.1c1.2-0.1,2.2-0.3,2.6-0.1c0.4,0.1,0.5,0.5,0.7,0.8c0.1,0.3,0.8,2.4,1.1,3.2c0.3,0.9,0.5,2.1,0.5,2.6
							c0,0.5,0.3,1.3,0.1,1.5s-1.3,0.8-1.6,0.9c-0.3,0-0.5,0.1-0.5,0.1s0.3-0.4,0.1-0.8c-0.1-0.3-0.9-0.8-1.3-0.9
							c-0.4-0.1-1.1,0-2,0.4c-0.9,0.4-3.4,1.1-4.9,1.3c-1.5,0.3-2.1,0.5-4.5,0.5c-2.5,0-8.2,0-10.6,0c-2.4-0.1-9.6-0.3-13.1-0.5
							c-3.4-0.1-11.9-0.7-14.8-0.8c-2.9-0.1-12-0.7-14.1-0.8s-12.7-0.8-14.9-0.9c-2.2-0.1-13.2-0.8-14.9-1.1
							c-1.8-0.1-5.7-0.4-6.7-0.5c-1.2,0-2.8-0.3-3.4-0.4c-0.7-0.1-0.7-0.4-1.1-0.5C369.9,208.8,369.3,208.8,369.3,208.8"/>
						<path d="M364.8,217.3c0,0,1.6-0.9,2.2-1.5s1.5-1.1,1.6-1.5c0.1-0.5,0.1-0.8,0.1-0.8s4.8,0.1,5.8,0.3c1.1,0.1,6.3,0.4,7.7,0.5
							c1.3,0.1,9.8,0.7,12.4,0.9c2.6,0.1,14.4,0.9,16.8,1.1c2.4,0.1,11.8,0.7,14.1,0.8c2.4,0.1,11.4,0.5,14.3,0.7
							c2.9,0.1,13.2,0.4,14.9,0.4s7.5,0.1,8.5,0c1.1,0,2.2-0.1,2.9-0.1c0.7,0,1.5,0,1.5,0.8c0,0.7-0.1,3.7-0.4,4.6
							c-0.3,0.9-0.9,2.6-1.5,3c-0.5,0.4-1.3,0.8-1.3,0.8s0.3-0.7,0.1-1.1c-0.3-0.4-0.9-0.9-1.5-0.9s-3.6,0.8-5,0.9
							c-1.5,0.1-4,0.4-5.8,0.4s-6.1-0.3-8.3-0.4c-2.1-0.1-8.1-0.7-11-0.9c-2.9-0.3-11-1.2-14.7-1.6c-3.7-0.4-11.2-1.3-13.7-1.7
							c-2.6-0.4-11.2-1.5-13.5-1.8c-2.2-0.4-8.5-1.2-10-1.5c-1.7-0.3-7-1.1-8.5-1.2c-1.6-0.1-2.5-0.4-3.2-0.4c-0.7,0-1.2,0-2.1,0
							c-0.9,0-0.8,0-1.2,0s-0.5,0-0.9,0C365,217.3,364.8,217.3,364.8,217.3"/>
						<path d="M360.8,224.8c0,0,1.3-0.4,2-0.8c0.7-0.4,1.8-0.7,2.2-1.2c0.4-0.5,0.4-0.7,0.4-1.1c0-0.4-0.1-0.7-0.1-0.7
							s2.2,0.1,3,0.3c0.9,0.1,5.2,0.7,6.3,0.9c1.3,0.1,7.8,1.2,9.5,1.5c1.7,0.3,13.6,1.8,16,2.2c2.4,0.3,12.6,1.6,14.4,1.8
							c1.8,0.3,13.3,1.5,15.1,1.6c1.8,0.1,8.2,0.8,10.4,0.9c2.2,0.1,7,0.4,9,0.5c2.1,0,3.6,0,4.1,0.1s0.9,0.5,0.8,0.9
							c-0.1,0.4-0.5,3.6-0.8,4.2c-0.3,0.7-0.5,1.8-0.8,2.4c-0.3,0.4-0.5,0.9-1.1,1.2s-0.7,0.4-0.7,0.4s0.4-0.7,0.1-1.1
							c-0.3-0.4-0.9-1.1-1.3-1.2c-0.4,0-2.1,0.3-3.2,0.4c-1.1,0.1-3.2,0.4-4.5,0.5c-1.3,0.1-3.2,0.3-4,0.3c-0.9,0-2.5-0.3-4-0.4
							c-1.5-0.3-6.7-0.9-8.7-1.2c-1.8-0.3-8.1-1.3-10.7-1.8c-2.6-0.5-11.8-2.4-13.6-2.8c-1.8-0.4-8.6-1.8-10.3-2.2
							c-1.7-0.4-9.2-2.1-11-2.6c-1.7-0.4-6.5-1.6-7.8-1.8c-1.3-0.3-4-0.9-4.6-1.1s-1.5-0.4-2.1-0.1c-0.7,0.1-1.8,0.5-2.2,0.7
							c-0.4,0.1-0.5,0.3-1.1,0.1C361.1,225.2,360.8,224.8,360.8,224.8"/>
						<path d="M355,231.3c0,0,1.2-0.1,1.8-0.3c0.5-0.1,2-0.4,2.6-0.7c0.7-0.3,0.9-0.3,0.9-0.7s-0.1-1.2,0-1.6
							c0.1-0.4,0.3-0.8,0.3-0.8s1.3,0.3,2,0.4c0.5,0,2.5,0.4,3.3,0.7c0.8,0.3,10,2.5,11.5,2.9c1.5,0.4,12,2.9,13.9,3.3
							c1.8,0.4,10.4,2.2,12.3,2.6c2,0.4,14.7,2.8,16.8,3c2.1,0.4,9.4,1.5,11.1,1.7c1.7,0.1,4.2,0.4,4.8,0.5c0.5,0.1,0.9,0.4,0.9,0.9
							c-0.1,0.8-0.8,2.5-1.2,3.3c-0.4,0.8-1.1,2.2-1.7,3s-1.2,1.5-1.7,1.7c-0.5,0.3-0.7,0.4-0.7,0.4s0.4-0.7,0.3-1.1
							c-0.1-0.4-0.7-0.9-1.3-1.1s-2,0-3.2,0c-1.3,0-5.2-0.1-8.6-0.7c-3.3-0.5-8.6-1.3-12-2.1c-3.4-0.8-8.5-2-12-3
							c-3.6-1.1-9.4-2.6-13.1-4c-3.7-1.2-8.3-2.8-10.4-3.6c-2.1-0.8-8.1-2.9-9-3.2c-0.9-0.4-1.6-0.5-2.2-0.5s-1.6,0.1-2.4,0
							s-1.6-0.4-2-0.5c-0.4-0.1-0.7-0.3-0.9-0.5C354.9,231.5,355,231.3,355,231.3"/>
						<path d="M348,237.2c0,0,2.2-0.5,3.4-0.9c0.9-0.4,2.2-0.9,3.3-0.8c1.1,0.1,3.4,0.9,4.8,1.3c1.3,0.5,5.9,2.1,7.3,2.6
							c1.2,0.5,12,4.1,13.7,4.6c1.7,0.5,11,3.3,12.9,3.8c2,0.5,11,2.8,13.1,3.3c2.1,0.4,5.7,1.1,6.7,1.3c1.1,0.1,2.1,0.5,2.1,0.9
							c0.1,0.5,0,1.3-0.1,1.7c-0.1,0.4-0.5,1.7-0.8,2.5s-0.7,1.8-1.2,2.4c-0.4,0.5-1.5,0.7-1.5,0.7s0.5-0.4,0.4-0.8
							c-0.1-0.5-0.3-0.8-0.7-1.1c-0.4-0.3-0.7-0.5-1.2-0.5c-0.5,0-2.1,0.1-3.2,0.1c-1.2,0.1-5.2,0.1-6.6,0.1c-1.6,0-3,0.1-4.2,0
							s-2.5-0.4-4.4-0.9c-1.8-0.5-6.2-2.1-8.2-2.9c-2-0.8-7.8-3.3-9.4-4.1c-1.6-0.7-7.4-3.6-9.2-4.5c-1.8-0.9-4.6-2.4-6.1-3.2
							c-1.5-0.8-4.6-2.5-5.5-2.9c-0.8-0.4-1.7-0.7-2.5-0.8c-0.7-0.1-1.7-0.5-2-0.7c-0.3-0.1-1.1-0.4-1.1-0.4L348,237.2z"/>
						<path d="M340.6,242.4c0,0,2.4-0.5,3-0.8c0.7-0.3,2-0.5,2.4-0.4c0.5,0.1,2.2,0.9,3.3,1.5c1.1,0.5,5.7,3,7.1,3.8
							c1.5,0.8,7.5,4,9,4.6c1.3,0.7,5.8,2.9,7.5,3.6c1.6,0.7,7.3,3.2,8.9,3.8c1.5,0.7,3.8,1.5,5.2,2c1.3,0.5,3,0.9,3.8,1.2
							s2.2,0.7,2.4,0.9c0.1,0.4,0.1,0.9-0.1,1.5c-0.3,0.5-0.9,2.4-1.2,2.9c-0.3,0.5-0.8,1.7-1.2,2.1c-0.4,0.4-0.7,0.7-0.9,0.7
							s-0.3,0-0.3,0s0.5-0.7,0.5-0.8c0-0.3-0.3-1.1-0.7-1.3c-0.4-0.3-0.9-0.5-1.3-0.5c-0.4,0-1.8,0-3.2-0.1c-1.3-0.1-3.4-0.4-5-0.8
							c-1.6-0.4-2.6-0.5-4-1.1c-1.3-0.5-4.2-2.1-5.7-2.9c-1.6-0.9-6.3-3.8-7.8-4.9c-1.5-0.9-8.3-5.9-9.4-6.6
							c-1.1-0.8-3.6-2.5-4.5-3.3c-1.1-0.8-2.5-2-3-2.2c-0.5-0.3-2.2-0.9-2.9-1.1c-0.5-0.3-1.2-0.4-1.3-0.8
							C340.5,242.9,340.6,242.4,340.6,242.4"/>
						<path d="M333.2,246.7c0,0,1.3,0.1,1.8,0s1.7-0.5,2.1-0.5c0.4,0,1.1-0.1,1.7,0.1c0.7,0.3,2.4,1.3,3.3,2
							c0.9,0.7,4.5,3.6,5.7,4.4c1.2,0.8,6.6,4.8,7.8,5.5c1.1,0.8,6.1,4.1,7.5,4.9c1.3,0.8,3.8,2.4,5,3s2.5,1.3,2.9,1.7
							c0.4,0.4,0.8,0.8,0.5,1.6c-0.4,0.8-1.5,2.5-1.7,2.9c-0.3,0.4-1.1,1.2-1.3,1.5c-0.4,0.3-0.5,0.4-0.5,0.4s0.5-0.7,0.5-1.1
							c-0.1-0.4-0.4-1.1-1.1-1.5c-0.7-0.4-2-0.5-3-0.8c-1.1-0.3-4.8-1.2-6.2-1.6c-1.5-0.4-2.6-0.8-3.6-1.5s-3.3-2.9-4.5-4
							c-1.2-1.1-3.6-3.3-5-4.6c-1.3-1.2-4.2-4-5.2-4.9c-1.1-0.9-3.8-3.4-4.2-4c-0.5-0.5-1.6-1.6-2-2c-0.4-0.4-0.7-0.3-0.8-0.7
							c-0.3-0.3-0.1-0.8,0-0.9C333.1,247,333.2,246.7,333.2,246.7"/>
						<path d="M324.7,252.4l0.3-1.1c0.1-0.4,0.1-0.5,0.1-0.5s1.2,0,2.1,0c0.9-0.1,1.5-0.4,2.2-0.3c0.8,0.1,1.2,0.3,1.6,1.1
							c0.4,0.8,1.6,2.1,2.5,2.9c0.8,0.8,4.9,4.6,6.2,5.8c1.2,1.2,5.2,4.9,6.6,6.2c1.3,1.2,3.3,2.9,3.8,3.4s1.7,1.7,2,2
							c0.3,0.4,0.1,1.1-0.1,1.5c-0.3,0.5-0.9,1.6-1.5,2c-0.5,0.4-1.5,1.2-1.5,1.2s0.4-0.8,0.3-1.1c-0.1-0.4-0.8-1.1-1.3-1.2
							c-0.5-0.1-2.9-0.8-3.8-1.1c-1.1-0.3-3.2-1.2-3.8-1.7s-3.3-3.7-3.8-4.4c-0.7-0.8-2.9-3.8-3.7-4.8c-0.8-1.1-2.6-3.6-3.6-4.8
							s-2.5-3.3-2.9-3.7c-0.4-0.4-0.5-0.7-0.8-0.9C324.9,252.6,324.7,252.4,324.7,252.4"/>
						<path d="M316.5,253.5c0,0,1.5,0.3,2.4,0.3c0.8,0,1.6-0.1,2,0s0.8,0,1.2,0.5c0.4,0.4,0.5,1.2,0.8,1.7c0.1,0.4,2.9,4.2,3.3,4.9
							c0.4,0.7,2.4,3.2,3.2,4.2c0.8,1.1,3.2,4.1,3.8,4.9c0.7,0.9,2,2.2,2.4,2.8c0.4,0.5,1.2,1.7,1.3,2c0.1,0.3-0.1,0.7-0.4,0.9
							c-0.3,0.3-0.7,0.8-1.1,1.2c-0.4,0.4-1.1,0.8-1.2,0.9c-0.1,0,0.1-0.5,0.1-0.8c0-0.3-0.1-0.7-0.7-1.1c-0.7-0.5-1.7-0.9-2.5-1.2
							c-0.8-0.3-2.4-0.8-3.4-1.2s-1.6-0.8-2-1.2c-0.5-0.7-1.7-2.6-2.2-3.8c-0.7-1.2-2.5-4.6-3-5.7c-0.5-0.9-0.7-1.6-0.8-2.1
							s-0.1-2.6-0.3-3.2c-0.3-0.5-0.8-1.5-1.2-1.8c-0.4-0.3-0.5-0.4-0.7-0.4c-0.1-0.1-0.8-0.3-0.8-0.3s0-0.8,0-0.9
							C316.5,253.7,316.5,253.5,316.5,253.5"/>
						<path d="M316,264.6c0,0,0.9,1.6,1.3,2.1c0.4,0.5,1.2,1.7,1.7,2.5c0.4,0.9,1.8,3,2.1,3.8c0.4,0.8,0.8,1.5,0.8,2.2
							c-0.1,0.8-0.7,1.7-0.9,2.1s-0.3,0.8-0.7,1.2c-0.5,0.4-1.2,0.5-1.2,0.5s0.5-0.5,0.5-0.9s-0.4-1.1-0.5-1.3
							c-0.3-0.3-0.8-0.8-1.3-1.2c-0.7-0.3-1.8-0.9-2-1.3s-0.1-0.8,0.1-1.5c0.4-0.9,0.4-2,0.1-2.8c-0.1-0.8-0.3-1.1-0.4-1.3
							c-0.1-0.3-0.4-0.4-0.4-0.4s0.5-1.7,0.5-2.1L316,264.6z"/>
						<path d="M280.1,300.4c0,0,2.2-0.8,3.3-1.3c1.1-0.5,3-1.3,4.4-2c1.3-0.7,5-2.6,6.5-3.6c1.6-0.9,3.6-2.4,5.2-3.7
							c1.6-1.3,4.2-3.7,5.3-4.8s3.6-4,4.2-5c0.8-1.1,2-3,2-3l2.8,1.5c1.2,0.7,2.5,1.2,3.4,1.3c0.9,0.1,1.5,0.3,2.4,0.1
							c0.9-0.1,1.2-0.3,1.7-0.8s1.1-1.5,1.2-2c0.3-0.5,0.5-1.2,0.5-1.2s1.1,0.5,1.7,0.8l3.3,1.2c0.9,0.3,2.1,0.5,2.6,0.9
							c0.5,0.4,0.7,0.7,0.7,1.1c0,0.4-0.4,1.3-0.8,2c-0.4,0.7-1.6,3.4-2.1,4.2c-0.5,0.9-2.5,4.2-3.6,5.7s-4.4,5.7-5.7,6.9
							c-1.2,1.2-2.8,2.8-3.7,3.2c-0.9,0.5-2.4,0.8-3.3,1.3l-5.2,3.2c-1.3,0.8-3.3,2-4.6,2.6c-1.3,0.7-4.8,2.4-5.8,2.9
							c-1.1,0.5-2.5,1.1-3.2,1.5c-0.7,0.3-1.2,0.5-1.7,0.5c-0.5,0-0.9-0.4-1.2-0.8c-0.3-0.4-1.8-3.3-2.5-4.4c-0.7-1.1-2.9-5-3.3-5.8
							c-0.5-0.8-0.7-1.1-1.7-1.5c-0.7-0.3-0.9-0.4-1.2-0.4c-0.4,0-0.5,0-1.1-0.1C280.3,300.8,280.1,300.4,280.1,300.4"/>
						<path d="M272.4,302.6c0,0,1.8-0.5,2.8-0.8s2-0.7,2.5-0.8c0.7-0.1,0.9-0.1,1.2,0.1c0.4,0.4,0.7,0.9,0.8,1.5s2.1,3.7,2.6,4.9
							c0.7,1.1,2.4,4.2,2.9,5.2s2.5,4.1,2.9,4.8s0.9,1.6,1.2,2.1c0.4,0.5,0.9,1.7,1.1,2.2c0.3,0.5,0.4,0.9,0.3,1.3
							c-0.1,0.4-1.3,2.4-1.5,2.9c-0.3,0.5-1.3,2.4-1.3,2.4s-0.1-1.6-0.4-2.2c-0.3-0.8-0.5-1.2-1.1-1.6s-1.6-0.7-2-0.9
							c-0.4-0.3-0.8-0.5-1.3-1.6c-0.5-1.1-1.8-4.6-2.4-5.8c-0.5-1.3-2.2-5.5-2.8-7c-0.5-1.5-1.5-3.8-2-4.4c-0.4-0.5-1.6-1.5-2-1.5
							s-0.9-0.1-1.1-0.1s-0.5,0.1-0.5,0.1L272.4,302.6z"/>
						<path d="M332.8,279.5c0,0,0.8,0.1,1.2-0.1c0.4-0.3,1.3-0.9,2-1.6c0.7-0.7,1.3-1.5,1.6-1.8s0.4-0.5,0.4-0.5s0.4,0.1,0.4,0.4
							s-0.7,2.5-0.9,3c-0.3,0.5-0.9,2.5-1.3,3.4c-0.5,1.1-2,4-2.5,4.9c-0.5,0.9-3,4.9-4,6.2c-1.1,1.3-4.1,5.2-5,6.2
							s-4.6,4.6-5.5,5.5s-7.5,5.3-8.9,5.9c-1.3,0.8-5.5,3.2-6.5,3.8c-0.9,0.5-4,2-4.9,2.5c-1.1,0.5-3.7,1.7-4.2,1.8
							c-0.7,0.1-1.3,0-2,0c-0.5-0.1-0.8-0.1-1.1-0.1s-0.9,0.1-0.9,0.1l-0.3-0.5c0,0,2.5-0.9,3.7-1.6c1.2-0.7,6.6-3.2,8.1-4
							c1.5-0.9,4.6-2.6,6.3-3.7c1.6-1.1,5.5-4,6.9-5.2c1.5-1.2,5.4-5.2,6.2-6.1c0.7-0.9,4-3.8,4.6-4.6c0.8-0.8,2.1-2,3-3.3
							c0.9-1.5,3.2-4.9,3.6-5.9s0.9-1.8,0.8-2.2c-0.1-0.4-0.1-0.8-0.3-0.9c-0.1,0-0.9-0.3-0.9-0.3l0.3-0.9
							C332.7,279.6,332.8,279.5,332.8,279.5"/>
						<path d="M265.1,304c0,0,0.8,0,1.5-0.3c0.7-0.3,2.4-0.9,3-0.9c0.7-0.1,1.7-0.1,1.8,0.3c0.1,0.3,0.4,0.9,0.7,1.7
							c0.3,0.8,2.2,5.9,2.8,7.3s2.6,6.7,3,7.8c0.4,1.1,1.5,3.6,1.6,4.1s0.7,1.8,0.5,2.2s-0.9,1.7-1.3,2.4c-0.5,0.7-2.1,2.9-2.1,2.9
							s-0.1-0.9,0.1-1.2c0.1-0.3,0.4-0.8,0.3-1.2c-0.1-0.3-0.5-1.2-0.9-1.7c-0.5-0.4-1.5-0.8-2-1.2c-0.5-0.5-0.8-0.7-1.1-2.1
							c-0.4-1.5-1.3-5.4-1.6-6.6c-0.3-1.2-1.6-6.7-1.8-7.9c-0.3-1.1-0.5-2.6-1.1-3.2c-0.4-0.5-1.3-1.3-1.7-1.5c-0.4-0.1-0.8,0-0.9,0
							c-0.1,0-0.4,0-0.4,0L265.1,304z"/>
						<path d="M258.1,304.6c0,0,1.3-0.1,1.8-0.3c0.5-0.1,1.8-0.4,2.6-0.4c0.8,0,1.6,0.3,1.7,0.7c0.1,0.5,0.4,2,0.4,2.6
							c0.1,0.7,1.6,6.9,1.7,7.8s1.8,7.5,2,8.6c0.1,0.9,0.8,3.3,0.7,3.8c0,0.5,0,1.1,0,1.2c-0.1,0.1-1.1,1.5-1.6,2
							c-0.5,0.5-2.2,2.8-2.2,2.8s-0.1-0.7,0.1-0.9c0.3-0.3,0.8-0.8,0.7-1.2c-0.1-0.5-0.5-1.5-0.9-1.8c-0.4-0.4-1.5-0.9-1.8-1.3
							c-0.4-0.5-0.7-0.8-0.8-2c-0.1-1.1-0.5-7-0.7-8.9c-0.1-2-0.5-7.3-0.7-8.1c-0.1-0.8-0.3-1.6-0.8-2.1s-1.1-0.8-1.5-0.9
							c-0.4-0.1-0.7-0.1-0.7-0.1L258.1,304.6z"/>
						<path d="M250.9,304.7c0,0,1.3,0,1.6-0.1c0.3-0.1,1.6-0.3,2.5-0.3s2,0.3,2,0.8c0,0.5,0.1,2.1,0.1,3.2c0,1.1,0.4,6.2,0.5,7.1
							c0,0.8,0.5,6.6,0.5,8.1c0.1,1.5,0.3,4.1,0.3,4.6s0,1.2,0,1.2s-1.6,1.6-2.1,2.1c-0.5,0.4-2.4,2-2.4,2s0.3-0.8,0.5-1.1
							c0.3-0.4,0.5-0.9,0.3-1.2c-0.3-0.4-1.6-1.8-2-2.1c-0.4-0.3-1.1-1.1-1.1-1.7c-0.1-0.7,0.3-5.4,0.5-7.4c0.1-2,0.5-6.3,0.7-7.9
							c0.1-1.6,0.3-3.3,0-4s-0.8-1.5-1.2-1.6s-1.1-0.3-1.1-0.3L250.9,304.7z"/>
						<path d="M243.6,304.2c0,0,0.9,0,1.5,0c0.5,0,0.9-0.1,1.7-0.1s1.3,0,2,0.1c0.5,0.3,1.1,0.5,0.9,1.5s-0.3,4.2-0.4,5.3
							c-0.1,0.9-0.7,7.8-0.7,8.3c0,0.5-0.3,3.6-0.3,4.6c0,0.8-0.4,2.6-0.4,3.3c-0.1,0.7-0.4,1.8-0.4,2s-0.1,0.4-0.1,0.4
							s-1.2,1.1-1.7,1.2c-0.4,0.3-0.4-0.3-0.7-0.5c-0.3-0.3-0.7-0.3-1.3-0.7c-0.7-0.3-1.6-1.2-2.1-2c-0.4-0.7-0.5-1.3-0.3-2.5
							c0.3-1.1,1.2-5,1.6-6.3c0.3-1.3,1.2-5.2,1.5-6.6c0.3-1.3,0.8-3.4,0.8-4.2c0-0.8-0.3-1.5-0.7-1.8s-0.5-0.4-0.8-0.5
							c-0.3-0.1-0.5-0.1-0.5-0.1L243.6,304.2z"/>
						<path d="M236.3,303c0,0,0.9,0.1,1.5,0.1s1.3-0.1,2.2,0.1c0.9,0.3,2,0.4,2.1,0.8c0.1,0.4,0.4,0.8,0.1,1.7
							c-0.3,0.9-1.8,7.4-2.1,8.6c-0.3,1.1-1.5,6.3-1.7,7.3c-0.3,0.9-0.9,3.8-1.1,4.5c-0.3,0.7-0.7,2-0.7,2.1s-1.1,0.7-1.3,0.8
							c-0.3,0.1-0.5,0.3-0.5,0.3s0.4-0.5,0.3-0.9c-0.1-0.4-0.5-0.7-1.1-0.7s-1.1,0.4-1.5,0.3s-1.1-0.4-1.5-1.5
							c-0.5-1.1-0.5-1.3-0.4-2.1c0.1-0.8,2.2-5.8,2.6-7s2.4-6.1,2.8-7.3c0.5-1.2,1.1-2.8,1.1-3.2c0-0.5-0.4-1.2-0.7-1.5
							c-0.3-0.3-0.5-0.4-0.7-0.4s-0.3-0.1-0.3-0.1L236.3,303z"/>
						<path d="M229.1,301c0,0,0.7,0.3,1.5,0.3c0.7,0,1.5,0,2.2,0.3c0.8,0.3,1.8,0.9,2.1,1.3c0.1,0.4-0.3,1.3-0.7,2.4
							c-0.5,1.1-2.6,6.9-3.2,8.1c-0.5,1.2-2.8,6.9-3,7.7c-0.3,0.8-1.3,3.2-1.6,3.7c-0.3,0.7-0.5,1.2-0.5,1.2l-1.2,0.4
							c0,0,0.4-0.5,0.1-0.8c-0.1-0.3-0.8-0.9-1.2-0.9s-0.9,0.1-1.3,0.3c-0.5,0.3-1.2,0.3-1.5-0.3c-0.3-0.4-0.9-1.7-0.9-2
							c-0.1-0.3-0.3-0.8,0-1.3c0.3-0.7,2.5-4.6,3-5.4c0.5-0.8,3-5,3.6-6.1c0.5-1.1,2-3.4,2.2-4c0.3-0.5,0.4-0.9,0.3-1.3
							c-0.3-0.4-0.3-0.7-0.4-0.7c-0.3-0.1-0.7-0.1-0.7-0.1L229.1,301z"/>
						<path d="M253.6,210.8c-35.1,0-61.7,21.7-61.7,46.2c0,24.6,26.6,46.2,61.7,46.2s61.8-21.7,61.8-46.2
							C315.4,232.5,288.8,210.8,253.6,210.8z M253.6,301.4c-35.5,0-59.7-22.2-59.7-44.3s24.2-44.3,59.7-44.3s59.7,22.2,59.7,44.3
							S289.2,301.4,253.6,301.4z"/>
						<path d="M253.5,227.3c8.5,0.1,14.3,3.6,14.3,12.9c0,9.8-5.9,12.9-14.3,13.1c-7.9,0-14.3-2.9-14.3-13.1
							C239.2,231.3,245.7,227.4,253.5,227.3 M277.6,254.7c8.5-4.8,10.2-9.6,9.5-15.3c-1.2-10.3-15.3-17.7-34-17.4
							c-22.5,0.3-36.1,11.5-36.1,14.5c0,3,4.5,3.7,4.5,5.3v30.9c0,2-4.2,4.1-4.2,6.2c0,2.2,14.5,12.9,38.5,12.8
							c21-0.1,33.2-9,33.3-19.6C289.2,266.3,285.9,258.6,277.6,254.7L277.6,254.7L277.6,254.7z M255.1,286.4h-0.5
							c-7.4,0-15.7-2.1-15.7-13.9c0-11.9,8.2-14.3,16-14.4c7.4,0.1,15.3,2.8,15.3,14.4C270.2,282.8,262.9,286.4,255.1,286.4"/>
					</g>
				</g>
			</g>
		</g>
		<g id="Слой_2">
		</g>
	</g>
</g>
</svg>
