<?xml version="1.0" encoding="utf-8"?>
<!-- Generator: Adobe Illustrator 22.0.1, SVG Export Plug-In . SVG Version: 6.00 Build 0)  -->
<svg version="1.1" id="Layer_1" xmlns="http://www.w3.org/2000/svg" xmlns:xlink="http://www.w3.org/1999/xlink" x="0px" y="0px"
	 viewBox="0 0 512 512" style="enable-background:new 0 0 512 512;" xml:space="preserve">
<g id="Layer_2_1_">
	<path d="M235,27.9l-0.4-4.1l-5.8-7.1l-1.8-0.5l-1.2,1.8l0.2,2.1l-2,1.8l-0.2,2.5l2.3,1.2l3.2,2.3L235,27.9L235,27.9z"/>
</g>
<g id="Layer_1_1_">
	<path d="M279.9,405.3l-2.4-4.6l-3.2-6.6l-2.6-6.9l-1.9-7.8l-0.8-6.7v-6.5l0.7-7.7l0.9-3.8l-1-3.3l-2.1-1.7l-4.2-3.1l-3-2.1
		l-0.6-4.1l-1.4-4.4l-2.6-4.3l-2.8-3.6l-3.6-3.4l-4.5-3.4l-5.1-3.8l-2.7-1.3l-2.7-0.8l-2.3,0.4l-2,1.3l-0.9,2.1l0.6,3.8l2,8.6
		l3.4,11.4l2.8,6.8l3.8,8.7l2.7,5.1l4.1,7.5l5,8.4l3.9,5.4l3.3,4.4l0.1,2.4l-0.4,2l-1.8,0.7l-5.5,0.3l-9.6-0.6l-7.9-1l-7-1.2
		l-8.5-2.4l-4.3-1.9l-2.8-1.2l-3.2-0.6l-3.7,0.1l-2,0.9h-2.7l-6.4-1l-3.6-1.2l-4-0.3l-6.4-0.1l-4.8-0.4h-4.4l-4.4,0.3l-3,1.2
		l-2.1,0.6l-0.7,1l0.1,2l2,3.3l3.8,5.3l2.3,1l3.6,2.5l4.1,2.3l4.4,1.4l6.4,0.1l5.7-0.6l4.8-1.1l4.1-1.3l1.7,0.9l0.8,1.7l1.4,0.4
		l3.5-0.1l4.4,0.3l2.3,0.7l2.7-0.7l8.8,1.1l6,0.9l9.8,2.1l7.1,2.1l7,2.4l6.2,2.8l2.4,1.7l6.4,0.3l3.4-0.9l1.8-3.7l2-4.5L279.9,405.3
		z M179.9,390.8l-0.4,1l-0.8,0.9l-0.6,0.2l-1.3,0l-1.2-0.3l-0.5-0.4l-0.8-1l0-0.9l0.4-0.6l1.5-0.5l1.7-0.3l0,0l1.3,0l0.6,0.4
		l0.1,0.7L179.9,390.8z M248.8,399.6l-0.5,0.7l-1.6,0.1l-2.8-0.5l-2.5-0.4l-2.6-0.1l-2.5-0.2l-5.7-1.4l-4.5-1.4l-3.2-1.1l-0.5-0.9
		l0.1-1l0.6-0.2l4.2,1.3l0,0l1.9,0.8l2,0.4l2.4,0.3l4,0.4l3.5,0.5l3.3,0.2l2.6,0.6l1.5,0.4l0.4,0.6L248.8,399.6L248.8,399.6z
		 M268.5,396.8l-0.5,1l-1,0.8l-1.4,0.3l-0.8-0.3l-0.2-0.8l0.2-0.9l1.3-1l0,0l1-0.2h1.1l0.3,0.4L268.5,396.8L268.5,396.8z"/>
	<path d="M424,203.8l-2-0.9v3l-1.6,1.8l-2.8,4.2L416,213l-4.4,5.4l-1.8,2.8l-2.1,4.8l-2.3,0.4l-2.1-1.2l-1.3-5.7l0.3-6.5l1.4-6.1
		l3.5-5.7l7.1-10.6l4.2-8.7l0.5-6.1l-0.7-1.9l-1.2,1.2l-2.1,5.3l-3.2,5.4l-4.8,3.9l-5.5,5.3l-8.2,9.6l-1.6-0.1l-0.5-1.6l-0.2-3.9
		l0.5-7.3l2.5-8.1l4.4-9l5.9-7.3l7.3-6.2l0.7-1.4l-0.9-0.7l-3.7,1.9l-3,2l-5.2,4.4l-6.4,5.7l-4.6,6.2l-4.4,8.1l-2.4,6.6l-0.7,6.6
		l-0.3,8.9l2.1,9.2l2.1,8l4.1,12.6l2.6,15.1l1.6,11.5v6.2l-0.7,6.5l-1.1,5.4l-2,6l-7.5,9.4l-7.6,6.9l-9.8,5.5l-9.4,0.5l-1.2-4.6
		l-3.4-6.6l-4.6-6.4l-3-3.7l-4-5.5l-8.7-8.3l-8.9-7.3l-3.9-3l-12.2-8.3l-17.6-14.7l-9.6-11.9l-10.5-17.2l-2.8-10.3l0.7-6.4l1.4-1.2
		l3.7,2.5l5.9,2.8l4.8-0.2l5.5,2.5l5.9,3.6l3,2.4l3.9,2.7l4,0.5l0.9-1.8l-1.1-0.2l-1.2,0.5l-2-1.2l-1.7-2.6l-2.5-4.1l-4.8-4.4
		l-4.8-1.8l-2.6-0.5l0.5-1.4h3.7l4.3,1.4l6.2,4.1l2.8,1.2l1.1-1.4l-1.8-2.4l-4.8-4.3l-7.5-3.9l-9-3.5l-1.8-1.4l1.8-1.2l4,2l7.5,1.2
		l8,3.2l4.2,2.1l7.5,1.1l5.4-0.7l3-1.4l4.1-2.5l1.8-1.7l0.2-1.2l-1.7,0.1l-1.6,1.6l-5.3,1.7l-4.6,0.7l-3.9-0.5l-3.7-3l-3.4-3.9l-4-3
		l-6.1-1.2l-5.8-2l-2.5-1.6l0.2-1.4l2.3,0.3h5.2l5.2-0.3h5.3l2.8-0.5l2.3,1.9l3.7,0.9h3l1.4-1.1l-2.4-0.7l-3-2l-3.2-3l-5.2-2.7
		l-4.2-0.5l-3.9-0.5l-1.4-0.9l2.8-1.6h4.6l3.6,1.1l3.5,1.8l5.7,2.4l5.7,0.2l3-1.4l0.9-1.9l-2.3-1.1l-4.8-0.2l-4.1-1.4l-3.5-3l-3.9-2
		l-5.2-0.9l-4.4-1.6l-1.9-2.5l0.3-1.2l2.8,0.6l3.6,1.1l2.1,1.6l3,0.3l0.3-1.6l-3.2-2.5l-0.9-2.3l4.3,0.7l4,2.1l5.2,0.6l2,3.7
		l5.3,3.2l0.3,0l1.2-0.5l1.4-0.9l-0.7-1.1l-2,0.1l-1.8-2.4l-3.6-5.5l-6.2-5.5l-6.4-2.8l-1.8-2.1l-3.9-4.6l-3.6-1.9l-0.5-1.8l1.6-1.1
		l3.7,0.9l7.4,2.1l3.6,1.2l2.3,3.2l3.7,1.9h2.8l3.7,1.1l4.1-0.7l1.6-1.4l-2.3-2l-3.4-0.9l-3.9-0.5l-2.3-2l-3-4.4l-0.7-2.8l-3.9-3.5
		l-4.2-2.7l-4.8-3l-5.3-5l-0.3-1.4h1.2l6.9,5.5l7.1,4.1l3.7,2.8l4.8,4.4l4.3,2.3l2.5,0.7l1.2-2l-1.8-0.7l-3.7-3.4l-1.1-3.7l-3.9-4.2
		l-3.2-2.7l-1.6-4l-5.5-8.2l-7.5-6.6l-0.3-2.1l2.6,0.3l3.7,1.9l6,2.5l6.2,0.3l4.6,2.2l5,0.9l4.2-1.2l-0.3-1.8l-4.8-1.1l-4.2-1.9
		l-8.5-4.1l-4.6-2.5l-2.5-3l0.9-1.1l1.2,0.9l1.9,0.7l2.5,0.2h4.1l3.5-0.4l5.4-0.3l4.1,1.6l4.2,3l1.8,0.5l0.2-1.6l-1.4-1.4l-4.2-3.9
		l-6.6-3.4l-4.8-0.5l-9-0.5l-2.1-2.5l-4.6-4.6l-5.2-3.5l-1.9-1.8l1.6-1.2l2.4,1.1l4.4,2.3l5,1.8l6.7,1.6h5.8l4.8,5.4l3.9,2.3
		l1.4-1.4l-5.3-7.8l-8.3-6l-6.9-1.6l-5.9-6.2l-5.2-3l-7.1-1.8l3.9-3.4l6.9-2.3l5.2-1.6l1.2-1.6l-0.7-1.2l-2.8-0.7l-2.7-0.5l-20,0.4
		l-3.6-3.9l-4-2.6l-5.2-2.3l-6.7-1.1h-5.8l-1.6-2.1l-5.5-5.9l-6.6-6l-4,6.7l-0.2,2.1l1.9,2.5l0.2,2.1l-1.4,1.2l-4.5,0.3l-8.1-2.3
		l-8-1.7l-3.7,0.1l-6.1,1.2l0.7,2.1l3.4-0.1l1.4,0.2l0,0l0,1.9l-2,0.4l-2.5-0.3l-3.8,0.8l-2.9,0.9l-2.3,0.1l-0.7,1l0.8,1.4l1.7,0.4
		l1.6-0.5l1.9-0.8l1.9-0.1l4.1,0.2l3.1,1l3.7,0.9l5.4,2.4l0.5,1.2l-0.6,0.9l-2.5,0.9l-1.5,0.7l-2.7,1.8l-4.2,2.2l-5.1,3.6l-5.9,2.4
		l-4.6,3l-4.2,1.8l-3.9,1l-3.5,0.1l-4.8,0.1l-1.8,0.5l-1.1,2.2l-0.8,2.4l-0.9,1.6l-2.3,3.5l-2.2,3.8l-1.5,1.9l-0.1,2.2l0.1,3v3.2
		l2,1.8l1.7,0.9l2.1-0.1l3.4-0.9l3.8-1.2l5.2-2.1l2.1,0.1l0.5,1.3l-0.5,1.2l-1.7,0.9l-5.3,2l-3.9,1.2l-0.8,1.3l-0.1,1.4l1.3,1.2
		l2.7,0.3h2.2l2.8-0.1l3-0.7l4.4-2.3l2.9-0.6l2.4-0.5l1.9,0.6l2.7-0.1l2.7,0.3l2.2,1.3l3.5,0.3l4.5,1.4l2.4,0.3l3.8-0.7l4.9,0.3
		l2.1,0.8l1.2,2l-0.2,2.5l-0.6,3.1l-1.2,3.6l-1.6,4.5l-1.6,5l-1.7,4.5l-1.2,3.1l-3.9,6.2l-4.8,6l-4.3,5.9l-5.4,5.4l-5,4.2l-3.2,3.4
		l-1.7,5.5l-2.3,2.7l-3,2.1l-3.6,3l-5.5,3.4l-4.7,2.3l-3,3.4l-2.1,2.8l-2.1,1.3l-3,1.5l-1.9-0.4l-3.8-1.7l-4.2-2.7l-6.2-2.7l-7-3.6
		l-3.6-2.7l-4.5-3.6l-4.9-4l-5.3-1.9l-4.7-0.8l-6,1.2l-4.2,2.4l-3.6,2.5l-1.9,4.7l-1.3,3.6l-1.5,5.5l-1.7,3.4l-1.7,5.2l-0.2,6.2
		l-1.5,3.6l-1.7,5.7l-1.5,5.7l-2.7,5.4l-1.5,5.3l-0.9,6.6l-2.4,5.5l-1.5,3.2l-0.2,3.2l-0.2,5.4v9.3l-1.1,3.8l0.6,3.4l-0.2,5.5
		l1.9,4.4l1.5,1.1l2.7-0.9l2.5-2.3l3.6-4.4l3.2-5.1l1.2-4.2l-0.8-3.4l-1.1-4.2l-1.3-5.1l-1.2-5.3l-0.7-4v-3.8l0.9-4.3l2.1-6.6
		l2.1-3.4l1.9-1.7l1.5-2.3l2.7-0.2l1.3-0.8l1.9-1.7l2.1-1.9l1.9-2.5l0.8-3l0.7-2.5l0.2-3.4l0.6-3l1.5-1.9l1.5-0.4l1.9,0.6l2.7,1.5
		l3,3.4l3.2,4.7l3.6,4.2l3.8,3.4l3.4,2.7l3.4,1.5l1.1,2.1l-1.1,1.1l-3.6-0.8l-5.1-0.4l-6.6-1.3l-6.4-1.2l-7.7-0.2l-4.5,0.2l-3.4,2.1
		L103,213l-3,5.1l-2.3,5.8l-0.2,4.2l1.3,7.7l3,9.8l1.5,7.7l1.9,7.5l1.3,5.3l0.6,4.9l1.7,5.5l1.3,8.5l1.2,3l3.2,2.5l3,3l3.4,5.1
		l2.4,6l3.6,5.3l5.3,5.1l3.8,2.4l2.5,0.2l2.1-0.6l1.3-3l1.4-2.5l0.9-3.6v-8.3l-1.1-2.4c-0.2,0-0.2-1.5-0.2-1.7l-0.4-1.5l-1.7-2.5
		l-3.2-3.2l-5.9-2.5l-2.2-0.7l-0.4-3.6l0.2-2.3l-4-4.7l-2.5-6l-2.1-8.5l-1.7-7.8l-2.9-6.2l-1.1-7.5l1.7-4.5l3-1.7h2.3l3.4,3l4.9,3
		l5.1,1.9l12.3,6l6,3.4v3.2l5.5,3.2l7,2.4h14.7l-1.1,2.7l-0.6,1.5l1.9,3.6l3.6,5.4l5.8,5.7l7,7.7l6,5.3l11.2,8.6l9,4.9l6.8,3.6
		l8.7,5.9l8,5.7l6.9,5.9l7.2,9.8l0.3,4.1l1.6,4.2l4.4,3.2l4,1.6l2.5-0.3l2-1.9l2.8-3l0.7-4.1l3.4-5.8l0.7-4.5l0.5-5l0.3-3.9l1.1-2.4
		l2.3-1.1h2.2l0.1,1.6l-1.6,1.7l-1.4,3.7l-1.1,2.3v2.8l-0.4,6l-0.9,3l-2.6,4.6l-3.6,5.9l-3.5,6.4l-2.1,8.3l-1.1,8.7l1.1,9.7l1.4,5.7
		l3.4,7.5l4.3,8.9l3.4,6.9l4.6,7.3l5.5,6.7l1.1,2.3v1.6l-0.7,2l-1.9,3.2l-3,4.2l-6.2,8l-6.2,6.7l-5.7,6.2l-2.4,1.4l-5,1.9l-3,2.8
		l-1.6,3.2l-3.6,4.4l-4,4.4l-5,5.2l-3,5.3l-1.8,5.4l-1.1,4.4l0.2,3.6l2.1,2.3h7.8l3.4-0.3l3.5-2.1l4.6-2.1l0.7-1.8h1.6l2.4-1.1
		l2.3-2.2l1.3-8.5l-0.7-1.8l-0.3-1.8l1.3,0.3l1.4,0.4l1.4-1.1l2.3-1.4l2.4-3.2l3-4.3l1.6-3.9l0.3-3.2l2-1.4l2.8-1.6l2.3-1.4l1.9-3.9
		l4.1-4.3l7.6-7.1l5.8-3.9l5.9-3.2l1.4-1.4l0.5-1.4l1.2-1.6l-0.9-2.1l-0.2-3.9l-0.8-3.6l-0.9-2.1l-2-3.5l-3.2-4l-1.6-3l-0.3-3.2
		v-4.3l0.7-2.4l1.9-6.6l2-3.2l2.1-1.2l3.9-2.4l4.6-3.9l6.2-5.3l4.2-4.4l4.3-5l4.4-5l3.2-5.6l2.6-4.8l2.5-5.5l1.8-6.1l0.5-5.6
		l0.3-4.3l1.4-1.4l1.6-0.4l1.4,0.9l1.2,3l0.3,4.1l0.6,3.9l-0.4,2.6l-0.3,4.1v8.7l1.1,6.9l1.2,1.8l1.1-0.1l0.5-1.2l-0.7-2.8v-4.8
		l1.4-4l0.7-5.9l0.7-4.1l0.9-1.9h1.1l0.9,0.9l0.9,3.4l0.7,3.2l-0.3,5.1l-1.1,6.9l-3.2,6.7l-3,6.4l-1.8,5.5l-0.3,3.4l0.3,3.9l1.2,3.7
		h2.3l1.2-1.6l-0.7-1.8l-0.5-3.2l2.1-2.8l2.5-3.4l1.6-3.2l3.9-6.2l3.2-5.7l1.4-6.2l1.2-8.2v-8.1l-1.6-5.7l-3.2-4.4l-0.4-2.1l1.4-0.7
		l1.8,0.9l2.3,2.8l2.8,5.2l1.2,6l0.7,8l1.8,5.5l0.2,0.1l2.4,5.5l1.6,0.6l0.7-1.4l-0.2-0.9l-1.2-4.1l-0.2-4.1l0.2-6l1.1-6.7v-3.4
		l-0.4-2.8l-2.8-5.7l-2.4-4.1l0.9-1.6l3.4-0.7l4.6-2.1l5-2.6l4.4-3.9l5.7-7.7l3.2-6.4l2.6-6.1l0.9-9.7l0.2-8.7l-1.4-10.8l-1.6-7.8
		l-1.4-8l-0.9-8.3l0.7-5.3l1.4-6.6l3-6.6l4.3-6.7l1.6-4.3l0.3-2.1L424,203.8z M182.9,75.4l-1.4,1.4l-2,1.1l-2.6,0.6l-0.9-0.6
		l-0.3-1.9l0.8-2.6l1.9-2.6l0,0l1.5-0.8l1.4,0.1l1.7,1.4l0.8,1.2L182.9,75.4z M189.8,73.7l-0.5,0.2l-1,0l-0.8-0.4l-0.6-0.7L187,72
		l0.7-1.2l0,0l0.6-0.4h0.8l0.7,0.1l0.2,0.7l0.1,1.3L189.8,73.7z M198.4,81.6l-0.7,0.3h-0.9l-0.5-0.3l-0.3-0.8l0.1-1l0.5-0.6l0.7,0
		l0,0l0,0l0,0l0.7,0.2l0.3,0.5l0.2,0.9L198.4,81.6z M214.7,56.8l-1.1,0.3l-1.3,0.3l-1.5,1.2l-3.3,2l-4.6,1.2l-2.8,0.7l-2.7,0.2
		l-1.4-0.1l0,0l2.2-1.9l4.1-2l4.1-1.8l3.9-1.8l1.8-0.9l1.3-0.2l1.1,0.2l0.9,1.4L214.7,56.8z M90.8,256.3l-1.4-0.3l-0.7-1.4l1.4-0.7
		l1.3,0.1l0.3,1.2L90.8,256.3z M109.5,181.8l-1,3.7l-1.3,4.2l-2.3,3.6l-1.2,0.3l-0.4-1v-1.9l0.2-2.5l0.9-4.8l2-3.5l0,0l1.1-1.2
		l1.5-0.4l0.6,0.9L109.5,181.8z M119.7,167.7l-2.3,0.9l-2.2,0.2l-1.3-0.5l-0.3-1l0.4-1.3l1.2-0.8l2.4-0.3l0,0l1.2-0.1l0.9,0.2
		l0.8,0.7l0,0.8L119.7,167.7z M138.5,193.1l-0.5,0l-1.2-0.7l-1.6-0.9l-1.4-1.2l-1.3-1.3l-0.6-0.7l-0.1-1.1l0,0l0.3-0.5l0.5,0
		l0.8,0.1l0.9,0.8l1.1,1l1.7,1l1,1.2l0.6,0.9l0,0.8L138.5,193.1z M106.9,218.4l-0.9,1.2l-0.9,0.3l-0.6-0.5l0-1.7l1.4-2.5l0.4-0.7
		l0.7-0.3l0.7,0.4v1.4l-0.4,1L106.9,218.4z M112.9,263.1l-0.3,0.4h-0.3l-0.6-0.5l-0.5-0.9l-0.8-1.7l-1.1-2.2l-1.1-3.5l-0.6-3.3
		l-0.1-3.8l0.5-3.7l0,0l0.3-0.4h0.5l0.5,0.5l0.5,2.3l0,2.3l0.9,2.9l1.1,3.1l0.5,2.7l0.7,4.5L112.9,263.1z M134.4,304l0.6-0.1
		l1.4,0.3l0,0l0.6,0.7l0.1,0.8l-0.1,1l-0.8,0.6l-1-0.2l-0.7-0.7l-0.3-1.5L134.4,304z M148.3,239.2l-1.4,0.1L145,239l-1.3-0.6l-3-1.9
		l-3-2.2l-3.4-2l-1.2-0.9l1.5,0l1.7,0.6l2.9,0.7l2.6,1.3l3.1,1.3l2.2,1l1.2,1.1l0.2,1L148.3,239.2z M164.3,197.7l-2,5.7l-1.8,5.4
		l-3.1,3.9l-1.6,1.2l-1.7,0.6l-1-0.7l-0.1-1.2l1.3-1.4l1.4-2.3l1.8-3.9l1.1-3.7l1-3.6l1.9-3.5l1.3-1.8l1.1-0.3l0,0l0,0l0,0l1,0.4
		l0.3,1.2L164.3,197.7z M241.5,85.2l1.6-2l1.8-1.7l1.6-1.1l1.2-0.1l0.8,0.5v1.5l-0.4,1.6l-1.8,1.7l-2.2,1.3l-2.2,0.6l-1.1-0.3
		l-0.1-0.9L241.5,85.2z M235.1,47.8l1.5-0.5l0,0l1.1-0.5l1.3,0.5l0.4,1l-1,1.2l-1.4,0.5l-1.7,0.1l-0.6-1.2L235.1,47.8z M221.7,60.3
		l-0.6-1.7l0.9-1.9l2-1.7l3.2-0.1l2.4,0.4l1.8,1.3l0.9,2.2l0.8,2.3l-0.1,2l-2,0.8h-2.2l-2.6-1.1l-2.3-1.2L221.7,60.3z M229.6,85
		l-2.7,0.6h-2.5l-0.4-0.8l0.6-0.9l0.7-0.4l0,0l4.8-3.4l2.9-1.8l1.8-1.1h0.6l0.1,1.3l-1.2,1l-0.6,2l-1.5,2.3L229.6,85z M197.5,172.9
		l-0.3-0.5l0,0l0.1-1.3l0.9-1l3-1.2l6.3-2l6.3-0.8h3.8l3.2,0.7l3,1.5l2.4,2.3l0.1,1.3l-0.3,0.9l-1,0.2l-1.5-0.2l-2.4-0.7l-2.2-0.7
		l-2.7-0.3h-3.4l-2.9,0l-2.5,0.2l-2.8,0.5l-2.3,0.6L200,173l-1.4,0.1L197.5,172.9z M237.5,303.6l-3.2-2l-5.4-3.6l-8.4-5.7l-3.4-2.3
		l-3.6-2.8l-3.9-3.6l-2.9-2.3l-3.5-3.4l-2.3-2.4l-1.4-2.2l-0.5-2.6l0.1-2.4l0.9-0.9l1.6,0.1l2.5,1.5l2.7,2.6l2,2.4l2.1,2.1l2.1,2.5
		l2.6,2.8l0,0l2.5,2.7l8.1,7l4.5,4l4,3.6l3.2,3l0.6,1l0.4,0.7L237.5,303.6z M239.6,193.5l-1,0.6l-2.4,0l-1.6-0.4l-0.9-1.2l-0.8-1
		v-1.5l1.2-1.5l1.8-1.4l1.7-0.2l0,0l1.6,0.4l0.5,0.9l0.2,1.9l0.2,2L239.6,193.5z M244.5,114.2l-1,3.7l-2.3,5.9l-3,5l-3.4,6.3
		l-5.4,7.6l-4.1,4.3l-2.8,1.1l-0.9,0l-0.1-0.7l0.9-2l3.5-5.4l2.8-5.9l2.5-5.1l4.5-8.8l4.3-6.8l2.2-2.1l1.7-0.3l0,0l0,0l0,0l0.7,1.2
		L244.5,114.2z M254.4,88.5l-0.5,1.3L252,92l-2.6,1.2l-2.6,1.1l-2.7,0h-1.7l-0.6-0.8l0,0l0.6-1.1l1.5-0.7l2.6-1.3l3-1.8l1.4-1l2.1-1
		l1.3,0.3L254.4,88.5L254.4,88.5z M268.5,169.7l-1,0.3l-1.2-0.1l-0.8-0.8l0.2-0.7l0.8-0.6l0,0l1.2-0.1l1.1,0.9l0,0.7L268.5,169.7z
		 M269.9,165h-1.4l0,0l-0.8-0.4v-1.1l0.3-0.7l0.8-0.2h1l1,0.6l0.1,0.8L269.9,165z M272.6,157.7l-1,0.5l-1,0.1l-1.1-0.2l-0.3-0.7
		v-0.9l0.9-0.6l0,0l1.1-0.2h1l0.6,0.5l0.1,0.8L272.6,157.7z M273.9,151.6l-1.3,0.4l-1.4,0l0,0l-0.8-0.5l0-0.6l0.2-0.9l1.1-0.5
		l1.3-0.2l1.1,0.5l0.4,1L273.9,151.6z M277,143.1l-0.7,1l-0.7,0.9l-1.3,0.3h-1.3l-1.2-0.6l-0.1-0.9l0.8-0.9l0.6-0.7l0.9-0.3l0,0
		l1.5-0.4h1.2l0.5,0.6L277,143.1z M278.9,135.9l-0.6,1l-1.1,0.2l-1.2,0.3l-1.4,0l-0.6-0.7l0.1-1.1l0.5-0.7l1-0.7l0,0l1.5-0.2
		l1.3,0.3l0.6,0.8C278.9,135.1,278.9,135.9,278.9,135.9z M281,130.6l-1.5,0.6l-1.2,0.4h-1.4l0,0l-0.6-0.1l-0.7-0.2l-0.4-0.7l0.2-0.9
		l1-0.9l0.8-0.4l0.9-0.4l1.3,0l1.3,0.4l0.5,1L281,130.6z M281.2,122.4l-0.5,0.9l-0.9,0.8l-1.3,0.5l-1.6,0.1l-1.3-0.2l-0.3-0.8
		l0.2-0.6l0.5-0.4l0,0l2.3-1.2l1.1-0.2l1.4,0.1l0.5,0.5C281.2,121.8,281.2,122.4,281.2,122.4z M276.7,102.9h0.8l0.4-0.3l0.2-0.9
		l0.2-0.7l0.4-0.5l0.7,0l0.9,0.2l0.8,0.4l0.1,0.9l-0.1,1.5l-1.1,1l-1.5,0.7l-0.6-0.1l-0.6-0.2l-0.6-0.8l-0.1-0.9L276.7,102.9z
		 M276.7,96.7V96l0.6-0.6l1-0.4l0,0l1.2,0l0.7,0.2l0.2,0.6l-0.4,0.6l-0.6,0.7l-1,0.2h-1.1L276.7,96.7z M276.7,116.2l0.9-0.5l1-0.2
		l1-0.1l0.7,0l0.3,0.4v0.7l-0.3,0.8l-0.7,0.8l-1.7,0.7l0,0l-0.8-0.1l-0.8-0.2l-0.2-0.8l0.2-0.9L276.7,116.2z M281.1,110.3l-0.2,0.6
		l-1.1,0.7l-1.4,0.5l0,0l-0.8-0.2l-0.8-0.4l-0.1-0.8l0.1-1l0.6-0.6l0.8-0.6l1.2-0.2l1,0l0.7,0.2l0.2,0.7L281.1,110.3z M281.5,89.9
		l-0.1,0.8l-0.5,0.7l-0.9,0.3l-0.8,0.2l-0.7,0.1l-1-0.1l-0.2-0.6l0.2-0.8l0.6-0.5l0.6-0.3l1.1-0.7l1.1,0L281.5,89.9z M280,82.9
		l0.6,0.3l0.1,0.8l-0.1,0.8l-0.9,0.8l-0.9,0.3l0,0l0,0l0,0l-0.6-0.1l-0.4-0.2v-0.8l0-0.8l0.6-0.7L279,83L280,82.9z M278.8,78.9
		l-0.2,0.9l-0.6,0.5l-0.6,0.3l-0.8,0.1l-0.6-0.4l-0.1-0.7l0.3-0.6l0.6-0.8l0,0l0.6-0.3l0.8,0l0.6,0.4L278.8,78.9z M271,63.3l1.4-0.1
		l2-0.8l1.8-0.4l1.5-0.1l0.8,0.7l-1.1,1.6l-1.1,0.3l-1.8,0.6l-2.3,1.3l-2.2,1.2l-2.5,1.1l0,0l-0.9,0.1l-0.7-0.2l0.1-1.1l-0.4-1v-1.8
		l0.8-2.1l1.1-1.2l0.7-1l0.8-1h1.2l0.8,0.8l-0.2,2L271,63.3z M270.1,44.2l0.5,0.3l-0.2,0.5l-0.8,0.9l-1.1,0.1l-1.3-0.2l-0.7-0.3
		l-0.5-0.6l0.6-0.5l0.9-0.4l1.4,0L270.1,44.2z M263.5,36.7l2.4-0.2l1.3,0.4l1,0.5l0,0.9l-0.9,0.4l-1.3,0.1l-1.3-0.1l-1-0.2l-0.9-0.6
		L263.5,36.7z M282.1,286.6l-1.2,1.1l-1.1,1.2l-1.1,2.2l-0.3,1.5l-0.7,0.6l-1.4-0.2l-0.7-0.8l0.2-2.9l0.8-3.7l0.4-2l0.9-2.5l0,0
		l0.7-0.8l1-0.2h1.3l0.6,0.5l1,1.5l0.2,2.8L282.1,286.6z M284.4,251.8l-6.1-3.2l-3.2-3l-5.3-5.3l-4.8-6.1l-4.2-6.9l-3.4-8.5
		l-1.4-5.9l0.7-3.4l1.9-0.5l2,0.9l1.3,3.5l1.1,5.2l1.9,5.4l5,7.8l6.7,9.9L284.4,251.8L284.4,251.8z M284.9,355.3l-1.4,3.7l-0.7,1.8
		l-1.3,2.8l-1,3.3l-0.3,1l-0.3,0.6l0,0h-0.9l-0.7-2.2l0-2.5l0.5-3.4l1.2-4.6l2-2.8l1.8-2.2l1.6-0.2l0.4,1.4L284.9,355.3z
		 M291.9,405.7l-0.3,0l-0.6-0.3l-1.2-1.7l-1.7-2.8l-0.8-1.9l-0.5-2.6V394l0.1-1.4l0.3-0.4h0.8l0,0l0.8,0.3l1.1,1.2l0.8,2.2l0.5,2.9
		l0,2.3l0,0.8l0.4,1.1l0.4,2.2L291.9,405.7z M256.3,488.9l-0.7,1.4l-0.9,1.3l-1.4,0.9l-1.3,0.3h-0.6l-0.6-0.5l-0.2-1l0.2-1.3
		l0.7-1.4l2-2l0,0l1.5-0.9l1.1,0l0.5,0.4l0.1,1L256.3,488.9z M269.5,467.6l-0.7,1l-0.9,0.5l-1.1,0.4l-0.8-0.2l-0.5-0.9l0.1-0.9
		l0.8-1l1.6-1l0,0l1.2-0.2l0.6,0.3l0.2,0.9L269.5,467.6z M299,438.2l-2.1,3.1l-2.8,3.3l-3.2,3.1l-3.4,3.6l-3.2,2.9l-2.5,2.3
		l-1.4,0.9l-0.9,0l-0.4-0.7l0.2-1.2l3.9-4.3l5.5-5.9l6.7-6.7l0,0l1.2-1.3l1.9-1.2l0.7,0.1l0.6,0.7L299,438.2z M311.2,428.8
		L311.2,428.8l0.8-0.3l1.1,0l0.5,0.2l0,0.5l-0.4,0.7l-1,0.9l-0.9,1h-0.6l-0.7-0.4l-0.2-0.8l0.3-0.8L311.2,428.8z M346.8,331.9
		l-0.2,1.6l-0.5,1.5l-0.3,1.3l-1,0.6l-0.9-0.2l-0.5-0.9l-0.3-3l-2-2.8l-0.2-2.3l1.1-1.4l1.2-0.4l1.2,0.1l1,0.9l1.1,1.4l0.3,1.6
		V331.9z M406.7,276.9l-0.1,2.3l-0.9,5l-1.3,4.2L403,292l-2.2,4l-2.5,3.5l-3.7,4.3l-4.2,4l-2.2,0.5l-1.2-0.5l-0.2-1.5l0.9-2.1
		l1.2-2.3l2.3-3l2.4-3.3l2.3-3.6l2.3-3.7l1.7-3.6l1-3.7l0.9-4.2l0.2-4.7l0.2-4.2l-0.3-3.7l-0.4-4.3l-0.4-4l-0.2-2.3l1.2-1.2l0,0
		l0.8,0.4l0.6,2l1.2,3.9l1,4.7l0.7,4.5L406.7,276.9L406.7,276.9z"/>
</g>
</svg>
