<?xml version="1.0" encoding="utf-8"?>
<!-- Generator: Adobe Illustrator 22.0.1, SVG Export Plug-In . SVG Version: 6.00 Build 0)  -->
<svg version="1.1" id="Layer_1" xmlns="http://www.w3.org/2000/svg" xmlns:xlink="http://www.w3.org/1999/xlink" x="0px" y="0px"
	 viewBox="0 0 512 512" style="enable-background:new 0 0 512 512;" xml:space="preserve">
<g>
	<path d="M490.1,331.1h-18.3c-10.2,0.3-15.2-5.2-17.4-7.1c-63.8-46-182.8-98.2-290.1-134.3c-13.8-4.3-34.4-7.2-47.3-7.2
		c-12.8,0-19-1-32.3-0.5c-12.8,0.5-26.1,2.7-33.6,4.8c-7.5,2.2-24.3,6.4-25.1,16.6c-6.4,4.9-13,11.4-15.6,14.1
		c-2.7,2.7-3.6,7.9,1.7,13.8c5.3,5.9,11.8,11.8,16,9.1s3.2-5.9,4.8-9.1c1.6-3.2,7-8,12.3-2.2c5.3,5.9,2,8.4-1,11.2
		c-2.9,2.6-8.5,7.5-4.8,12.3s8,6.4,13.8,2.2c4.3-3.1,15.8-9.8,22.5-13.5c1.7-1,3.7-3.4,11-0.4c7.8,3,20,8.4,25.2,11.2l-11.1,5
		c-5.8,3.7-11,14.3-11.5,18.1c-0.5,5.9,1.6,14.3,9.6,21.2h17.2l10.4-15l-0.8-1.6c13.3-1.6,49.6,9.4,66.7,2.7
		c11.8,4.8,32.6,7.5,70.9,3.7c7-0.5,16.5-2,22.3,5.7c6.1,7.9,35.9,39.3,45.5,42.6c9.7,3.2,49.6,3.2,60.1,5c9,1.7,12.5,0,20,8.5
		l16,14.2c1.8,2.2,7.5,6.3,13.8,6.3h11.1c6.4-0.5,9.8-5,11.5-10.4h27.2c8.5,0,11.2-7.7,11.2-14.6
		C502.2,336.7,497.5,331.1,490.1,331.1L490.1,331.1z"/>
</g>
</svg>
