<?xml version="1.0" encoding="utf-8"?>
<!-- Generator: Adobe Illustrator 22.0.1, SVG Export Plug-In . SVG Version: 6.00 Build 0)  -->
<svg version="1.1" id="Layer_1" xmlns="http://www.w3.org/2000/svg" xmlns:xlink="http://www.w3.org/1999/xlink" x="0px" y="0px"
	 viewBox="0 0 512 512" style="enable-background:new 0 0 512 512;" xml:space="preserve">
<g id="Layer_2_1_">
</g>
<g id="Layer_1_1_">
	<g>
		<path d="M410.3,284.5c-7.9-2.5-17-7.3-28.1-19c0.7-5.2,1.1-8.6,0.7-11.8c-0.4-3-1.4-5.2-2.7-8.2c-1.4-3-3-5.9-4.1-10.4
			c-1.1-4.5-1.8-10.7-0.7-20.7c1.1-10,0.7-26.3-3.4-43.8c-4.1-17.7-12.5-36.7-26.6-52.6c3.8-11.8,5.9-20,6.3-26.6
			c0.4-6.6-0.7-11.4-3.4-17.3c-2.7-5.5-9.7-10.4-20-13.4c-10.4-3-23.8-4.8-39.3-4.8s-38.1,1.4-56.3,1.1c-18.2-0.4-33.3-1.8-33.3-6.6
			s2.5-7,5.9-8.2s7.9-1.4,11.4-1.8c5.2,2.1,12.9,3.4,20.4,3.8c7.7,0.7,15.9,0.7,22.2,0.7c6.6,0,12.5-2.1,19-3.8
			c6.3-1.8,13.1-3.8,20.7-3.8c-6.6-2.1-14.8-5.2-23.4-7.7s-17.3-3.8-24.5-2.1c-2.7-2.5-4.5-4.5-7.7-5.2c-3-0.7-7.3-0.7-14.1,1.4
			c-7,1.8-11.4,2.5-14.8,3c-3.8,0.4-6.6,0.7-11.1,1.8c-4.5,1.1-10.4,1.8-15.2,4.1c-4.8,2.5-8.6,6.3-8.6,13.8c0,7.3,2.7,13.8,10,18.2
			c7.7,4.5,20,7.3,39.7,7c20-0.4,41.9-0.7,59.7,0c18.1,1.1,32.2,3.4,37,8.9c4.8,5.5,6.3,9.3,5.5,12.5c-0.7,3.2-3.4,5.5-7,8.6
			c-3,0-8.2,0.4-14.8,0c-6.3-0.4-13.4-1.8-20-4.5c-6.6-3-14.1-4.8-22.2-4.8c-7.7,0-15.6,1.4-21.8,5.2c-6.6,3.4-22.5,11.4-38.6,23.1
			c-16.6,12.3-33.4,28.6-41.1,49.7c-7.9,21.1-11.8,34.2-14.1,43.6c-2.5,9.3-3,14.1-4.8,19c-1.8,4.8-4.5,9.7-7,15.2
			c-2.5,5.5-4.5,11.4-4.1,18.2c0,7-0.4,15.2-1.4,23.1s-2.1,15.6-3,21.1c-1.1,5.5-2.7,12.2-4.1,19.7c-1.4,7.7-2.5,15.6-2.1,24.1
			c0,8.6-0.4,17.3-1.8,25.6c-1.1,8.2-3,15.9-5.5,22.5c-2.5,6.6-3.4,12.2-4.1,17.7c-1.1,5.2-2.1,10.4-4.8,15.6
			c-3,5.2-7,11.8-11.1,18.1c-4.1,6.3-7.9,12.2-11.1,16.3c-3,3.8-4.5,8.6-3.4,12.5c1.1,3.9,4.1,7,10.7,7.7s12.2-0.7,16.3-3.4
			c4.1-2.7,7-6.6,7.7-11.1s0.7-10.4,1.1-16.6c0.4-6.3,0.7-12.5,2.7-17.3l2.1-5.2l2.1-5.2c2.1-3.4,3.4-4.8,5.2-5.9
			c1.4-1.1,3-2.1,5.2-4.5c2.1-2.5,5.5-10,8.2-18.1c2.7-7.9,5.2-17,4.8-23.1c0-6.3,0.4-11.1,1.4-14.8c1.1-4.1,2.5-7.3,4.1-10.4
			c1.8-3,2.7-6.6,4.1-9.3c1.8-2.7,3.8-4.5,7.7-4.1c3.8,0.4,5.2,2.5,5.5,4.8s0.4,5.5,1.8,8.2c1.4,2.7,2.7,5.5,4.5,7.9
			c1.8,2.5,4.1,4.5,7.9,5.9c3.4,1.4,6.3,3.8,7.9,7c1.4,3,1.4,6.6-0.7,9.7c-2.1,3-5.2,8.2-7.7,13.8c-2.5,5.5-4.1,10.7-4.1,14.1
			s0.7,8.6,0,14.1s-2.1,11.1-6.6,15.6c-4.1,4.5-7.7,8.9-10,12.9c-2.5,3.8-3.4,7.3-3.4,9.3c0,2.1,1.1,4.8,3,7.3
			c2.5,2.5,5.9,3.8,11.8,3.8c5.5,0,10-1.4,13.1-3.4c3-2.1,5.2-5.2,6.6-8.9c1.4-3.8,1.1-7,0.4-9.3c-0.7-2.5-1.4-4.5-1.4-7.3
			c0-2.7,0.7-5.5,1.8-8.9c1.1-3,2.1-6.6,2.5-9.7c0.4-3,1.1-7,2.5-11.1c1.4-4.1,3.4-8.6,7-13.4c3.4-4.8,5.2-8.9,7-12.9
			c1.8-3.8,2.7-7,4.8-10c2.1-3,3-4.5,3.8-5.2c0.7-0.4,1.8,0.4,3.8,1.4c2.1,1.4,2.7,2.5,2.1,4.1c-0.4,1.4-1.8,3.4-3,5.5
			c-1.4,2.1-3.8,5.9-6.6,10c-2.7,3.8-5.5,8.2-7.3,11.1c-1.8,3-2.7,7-2.1,10.4c0.7,3.4,2.7,5.9,7.7,6.3c4.8,0.4,8.6,0.4,11.1-0.4
			c2.7-0.7,4.1-2.5,4.5-4.8c0.4-2.7,1.1-7,2.5-11.1c1.1-4.1,2.5-8.2,4.1-11.1c1.6-2.9,2.7-5.2,3.4-7.3c0.7-2.1,0.7-3.8,0.7-5.2
			c2.7,2.5,4.8,5.5,7,8.6c1.8,3,3.4,6.3,4.8,9.3c1.4,3,4.5,6.6,10,9.3c5.5,2.7,13.4,4.5,24.1,4.1c10.7-0.7,16.3-1.1,19.3-2.1
			c3-1.1,3.8-2.5,4.8-5.2c1.4-2.7,4.1-7.9,5.5-13.1s1.4-10.7-3.4-13.8c0.7-4.5,2.1-10.4,3.8-15.9c1.8-5.5,4.5-11.1,7.9-14.8
			c3.4-3.4,8.2-7.3,12.5-10.4c4.1-3,7.9-6.3,8.9-8.2c5.5,3,11.1,6.6,14.8,12.2c4.1,5.5,6.6,12.5,7.3,22.2c0,5.2,0.7,10,1.8,14.5
			c0.7,4.1,1.8,7.9,2.1,10.4c0.4,2.7,0.4,5.5,0.7,8.2c0,3,0,5.9,0.7,8.9c0.7,3,2.5,5.9,4.8,7.7c2.5,2.1,5.5,3,8.2,2.5
			c2.7-0.4,4.8-2.7,6.6-5.9c1.8-3,2.7-7,2.7-9.7c0-3-1.1-5.2-2.1-7c-1.4-1.8-2.7-3-4.1-4.1c-1.4-1.1-2.1-2.5-2.5-4.1s0-3.8,1.4-7.3
			c1.4-3.4,1.1-6.6,0-8.9c-1.1-2.5-2.5-4.5-3.8-5.9c-1.4-1.4-2.7-4.8-4.1-9.7c-1.1-4.8-1.8-10.7-1.8-16.3c0-5.5-0.4-12.2-2.1-18.1
			c-1.8-5.5-4.1-10.4-7.7-12.5c10-0.7,21.5-1.4,31.5-4.5c10-3,19-8.2,24.1-17.3C424.7,286.3,418.1,287,410.3,284.5z M378.1,295.2
			c-8.9-2.1-16.6-5.9-20.4-10.4c-2.1-2.5-4.8-4.8-7.7-6.6c-3-1.8-6.3-3-9.3-4.1c-3-0.7-7.9-2.7-13.1-4.8c-5.2-2.1-10-4.5-13.1-5.9
			c-0.7,1.4-2.1,3-4.1,5.2c-2.1,2.1-4.8,4.8-8.2,7.7c-3,2.7-3.8,5.2-3.8,7c0.4,1.8,1.8,3.4,2.5,4.8c1.1,1.4,4.8,4.5,8.9,8.2
			c4.1,3.4,8.6,7,10,8.6c-4.8,0-8.2-0.4-12.5-1.8c-4.1-1.4-8.6-3.8-16.3-8.6c-7.7-4.8-10-9.7-10-14.1c0-4.1,2.1-7.9,3-9.3
			c1.1-1.4,3.8-3.8,6.6-5.9c2.7-2.1,5.5-4.1,6.6-5.2s2.1-2.1,1.8-3c0-1.1-1.1-1.8-2.7-1.4c-12.9,2.1-21.8,5.5-27.7,9.3
			c-5.9,3.8-8.2,7.7-8.6,10.4s0.4,5.2,1.4,7.7c1.1,2.5,3,4.8,5.9,7.3c2.7,2.5,3.8,5.9,3.4,8.9c0,3-1.4,5.9-2.7,7.7
			c-1.8,1.8-2.5,2.7-3,3.8c-0.7,1.1-1.1,3-2.1,6.6c-1.1,3.6-1.8,10-2.1,17.3c-0.4,7.3-0.4,14.5,0,19.7c1.8-2.7,4.1-5.2,6.6-7
			c2.5-1.8,5.2-2.7,7-3.4c1.4,13.4,0.7,22.9-0.7,29.7c-1.1,7-3,11.4-4.1,15.2c-0.4,1.1-0.7,1.8-1.4,1.4c-0.7,0-1.4-0.7-1.8-2.1
			c-1.1-3-2.7-7.9-4.8-12.5c-2.1-4.5-4.5-8.6-7-10.7c-6.6-6.6-9.7-10-11.1-12.9c-1.4-2.9-1.1-4.8-1.1-8.9
			c-10.4-5.2-13.8-11.4-13.8-17.7c0-5.9,3-11.4,5.9-15.6c2.7-3.8,4.8-8.6,6.6-13.1c1.8-4.5,2.5-8.2,2.7-10.7c0.4-2.5-1.1-7-2.7-11.4
			c-2.1-4.5-4.5-9.3-7.7-12.9c-0.7-0.4-2.5-0.7-4.5-0.4c-2.1,0.4-4.1,1.4-5.5,4.5c-1.4,3-3.4,4.8-5.2,5.5c-2.1,0.7-4.1,1.1-6.3,0.7
			c-2.1-0.4-4.8-0.4-7.3,0c-2.5,0.4-4.8,1.8-6.6,4.1c-1.8,2.5-3.8,2.5-6.3,1.8c-2.1-0.7-4.5-2.1-6.3-3c-1.8-0.7-2.7-1.8-4.1-2.5
			c-1.4-0.7-3-1.1-7-0.7c-3.8,0.4-5.2,2.7-6.3,5.9c-1.4,2.7-2.5,5.9-5.5,6.6c-3,1.1-5.5-0.7-7-4.1c-1.4-3.4-1.8-8.2-1.8-13.4
			c-1.1-6.6,1.4-17,4.5-26.6s7-18.6,8.9-23.1c1.8-4.5,4.8-12.9,7.7-22.5c3-9.3,5.9-19.7,7.9-27.7c2.1-7.9,6.6-13.8,12.5-19.3
			c5.9-5.5,12.2-10.4,18.1-16.3c5.9-5.9,12.9-11.1,19.7-14.8c7-3.8,13.8-6.3,19-6.3c5.2,0,10.7,3,15.2,6.3c4.5,3.4,8.2,7,10,8.9
			c1.8,2.1,3.4,6.6,5.2,11.4c1.8,4.8,3.4,10,5.5,13.1s3.8,7.7,5.2,13.1c1.4,5.5,2.7,11.8,3.8,17.7c1.1,6.3,3.4,10.4,5.9,13.8
			c2.5,3.4,5.2,6.3,7,9.3c1.8,3,3.8,10.4,6.3,18.2c2.5,7.9,5.5,17,9.3,22.9c3.8,5.9,9.7,10,15.6,12.5c5.9,2.7,11.4,3.8,14.1,4.8
			c2.7,0.7,4.8,1.1,7,2.1c2.1,1.1,4.5,3,7.9,7.3c4.8,5.5,12.2,10.4,19,13.8c6.8,3.4,13.1,5.5,15.9,6.6C397,297,387,297,378.1,295.2z
			"/>
	</g>
</g>
</svg>
