<?xml version="1.0" encoding="utf-8"?>
<!-- Generator: Adobe Illustrator 22.0.1, SVG Export Plug-In . SVG Version: 6.00 Build 0)  -->
<svg version="1.1" id="Layer_1" xmlns="http://www.w3.org/2000/svg" xmlns:xlink="http://www.w3.org/1999/xlink" x="0px" y="0px"
	 viewBox="0 0 512 512" style="enable-background:new 0 0 512 512;" xml:space="preserve">
<g>
	<g>
		<rect x="212.4" y="427.6" width="87.5" height="21.6"/>
		<rect x="222.9" y="458.1" width="65.9" height="44.9"/>
		<rect x="126.2" y="327.6" width="259.2" height="10.5"/>
		<rect x="112.4" y="348.2" width="286.9" height="10.5"/>
		<rect x="112.4" y="308" width="286.9" height="10.5"/>
		<path d="M301.6,382.4c-14.5,13.2-14.5,36.8-14.5,36.8h-31.4h-30.7c0,0,0-23.7-14.5-36.8c-10.1-9.1-22.6-11.2-22.6-11.2
			c-8.1-1.4-8.1-2.7-8.1-3.4h69.9h19.6H331c0,0,0,1.4-8.1,3.4C323.6,371.2,311.1,373.2,301.6,382.4z"/>
		<g>
			<path d="M127.6,368.9c3.4,0,27,0,30.7,0c0,18.6-12.2,27-30.7,22.6C127.6,379,127.6,374.3,127.6,368.9z"/>
		</g>
		<path d="M238.1,70.8C250.6,46.5,252.6,9.3,255.7,9c3.4,0.7,5.1,37.8,17.6,61.8c12.2,23,36.8,42.9,35.8,44.9
			c-2,2.7-15.5-4.4-22.6-8.1c-11.2-5.1-20.6-9.1-20.6-9.1s-4.4,58.5,10.1,112.9c12.2,44.3,39.2,85.1,42.2,88.2h-35.5
			c-1.4-2-2-4.1-3.4-5.1c-10.1-17.2-16.6-32.1-23-57.4c-6.4,25.7-13.5,40.2-23.7,57.4c-1.4,2-2,4.1-3.4,5.1h-35.5
			c2.7-3.4,30.1-44.3,42.2-88.2c14.5-54.1,10.1-112.9,10.1-112.9s-9.1,4.1-20.6,9.1c-7.1,3.4-21.3,10.5-23,8.1
			C201.3,113.7,226.6,94.1,238.1,70.8z"/>
		<path d="M126.2,299.9c0-4.4-2.7-63.9-16.6-110.8c-15.2-51.4-46.3-81.4-44.3-85.1c2-2.7,27,2.7,46.3,15.2
			c20.6,13.5,40.2,36.8,38.9,38.9c-0.7,1.4-8.1-4.4-20.6-9.1c-13.2-4.4-19.3-4.1-19.3-4.1s21.6,36.2,32.8,75
			c9.1,32.8,13.5,75,13.5,79.1h-31.8v0.7L126.2,299.9L126.2,299.9z"/>
		<path d="M385.8,299.9c0-4.4,2.7-63.9,16.6-110.8c15.2-51.4,46.3-81.4,44.3-85.1c-2-2.7-27,2.7-46.3,15.2
			c-20.6,13.5-40.2,36.8-38.9,38.9c0.7,1.4,8.1-4.4,20.6-9.1c13.2-4.4,19.3-4.1,19.3-4.1s-21.6,36.2-32.8,75
			c-9.1,32.8-13.5,75-13.5,79.1h31.8v0.7L385.8,299.9L385.8,299.9z"/>
		<g>
			<path d="M384.1,368.9c-3.4,0-27,0-30.7,0c0,18.6,12.2,27,30.7,22.6C384.1,379,384.1,374.3,384.1,368.9z"/>
		</g>
	</g>
</g>
</svg>
