<?xml version="1.0" encoding="utf-8"?>
<!-- Generator: Adobe Illustrator 22.0.1, SVG Export Plug-In . SVG Version: 6.00 Build 0)  -->
<svg version="1.1" id="Layer_1" xmlns="http://www.w3.org/2000/svg" xmlns:xlink="http://www.w3.org/1999/xlink" x="0px" y="0px"
	 viewBox="0 0 512 512" style="enable-background:new 0 0 512 512;" xml:space="preserve">
<g id="_x23_ee2629ff">
	<path d="M347.3,132.7c20.9-3.7,42.2-4.2,63.4-4.6c21.1-0.2,43.1,2.1,61.9,12.5c17.3,7,26.8,28.1,20.4,45.9
		c-8.3,27.3-27.8,49.1-47.7,68.6c-50.3,51.9-112.8,89.2-172.8,128.7c10-14.6,18.3-30.6,24.5-47.2c4.7-13,9.3-26.6,9.8-40.7
		c0.7-14.4-2.3-29.9-11.6-41.3c-9.3-10.6-22.7-16.9-36.1-20.6c-19.4-5.5-39.8-6-59.8-6c-45.6,0.3-90.8,7.7-135.3,16.9
		c-15.7,2.8-31,7.6-47,8.3c13.6-4.4,25.5-12.3,38.4-18.6c60-30.4,122.1-56.8,186.4-76.9C276.2,146.8,311.6,138.9,347.3,132.7z"/>
</g>
</svg>
