<?xml version="1.0" encoding="utf-8"?>
<!-- Generator: Adobe Illustrator 22.0.1, SVG Export Plug-In . SVG Version: 6.00 Build 0)  -->
<svg version="1.1" id="Layer_1" xmlns="http://www.w3.org/2000/svg" xmlns:xlink="http://www.w3.org/1999/xlink" x="0px" y="0px"
	 viewBox="0 0 512 512" style="enable-background:new 0 0 512 512;" xml:space="preserve">
<g>
	<path d="M269.7,455.9h88.8c-13.6-7.2-18.4-26.4-19.2-44.8c-8.8-83.2-55.1-148-66.4-164.7c52.7-31.6,76-80,76-124.7
		C348.8,47.2,283.2,12,226.5,12H76.8c5.6,8,9.7,11.2,9.7,29.6v379.1c0,18.4-8,27.2-13.6,35.2h68c-5.6-8-13.6-16.8-13.6-35.2V281.5
		c45.9-0.8,84.1-8.3,114.8-20.4c46.7,50.2,52.3,123,53.2,142.9C295.9,423.9,285.7,441.6,269.7,455.9L269.7,455.9z M127.3,247.2V38.4
		h88c60.8,0,80.8,38.4,80,79.1C291.2,230.3,179.2,247.2,127.3,247.2L127.3,247.2z"/>
	<path d="M207.2,325.6c21.1-0.4,41.3-2,59.2-5.1c-2.4-8.1-11.2-25.7-15.6-33c-16.4,2.8-31.5,3.7-43.6,3.7v-8.8
		c-5.6,2-30.4,5.6-40.8,6.9v175.5c0,18.4-8,27.2-13.6,35.2h68c-5.6-8-13.6-16.8-13.6-35.2V325.6L207.2,325.6z"/>
	<path d="M279.2,81.2h-72v143.1c-9.1,3.2-27.6,9.1-40.8,10.4V84.4c0-18.4-3.9-21.6-9.7-29.6h99.6C264.4,59.6,275.2,71.2,279.2,81.2
		L279.2,81.2z"/>
	<path d="M359.5,106.8c12.2,14.6,16.9,34.2,16.4,54.4c-2.2,61.1-36.1,94-74.8,111.4c5.7,8.6,12.8,24.9,17.3,33.8
		c1.1-0.4,4.6-1.7,5.6-2c46.7,50.2,51.2,123.3,52,143.3s-9.7,37.6-25.5,52h88.8c-13.6-7.2-18.4-26.4-19.2-44.8
		c-8.8-83.2-55.1-148-66.4-164.7c52.7-31.6,76-80,76-124.7c0-58.7-42-93.4-87.1-105.2C346,65.9,355.9,85.5,359.5,106.8L359.5,106.8z
		"/>
</g>
</svg>
