<?xml version="1.0" encoding="utf-8"?>
<!-- Generator: Adobe Illustrator 22.0.1, SVG Export Plug-In . SVG Version: 6.00 Build 0)  -->
<svg version="1.1" id="Layer_1" xmlns="http://www.w3.org/2000/svg" xmlns:xlink="http://www.w3.org/1999/xlink" x="0px" y="0px"
	 viewBox="0 0 512 512" style="enable-background:new 0 0 512 512;" xml:space="preserve">
<g>
	<path d="M340.5,240.8h-53.2c-2,0-3.5,1.5-3.5,3.2v18c0,1.8,1.5,3.2,3.5,3.2h53.2c2,0,3.5-1.5,3.5-3.2l0-18
		C344,242.2,342.5,240.8,340.5,240.8z"/>
	<path d="M256,89.8L256,89.8C122.5,89.8,14.4,164.2,14.4,256c0,91.8,108.2,166.2,241.6,166.2c133.4,0,241.6-74.4,241.6-166.2
		C497.6,164.2,389.4,89.8,256,89.8z M259.7,114.4L259.7,114.4c89.1,1.2,163.4,46.6,183.9,107.6h-164
		C249,198.6,256.3,135.5,259.7,114.4z M356.1,243.8v18.3c0,5.5-4.7,9.9-10.4,9.9h-63.6c-5.8,0-10.5-4.4-10.5-9.9v-18.3
		c0-5.4,4.7-9.9,10.5-9.9h63.6C351.4,233.9,356.1,238.4,356.1,243.8z M262.3,233.9v38.2h-12.2l0-38.2H262.3z M253.8,114.4
		c-14.3,14.9-46.1,53-56.9,107.6H68.3C88.9,160.7,164,115.1,253.8,114.4z M168.3,262c0,1.7,1.5,3.2,3.5,3.2h68.8v6.9h-74
		c-5.8,0-10.5-4.4-10.5-9.9v-18.3c0-5.4,4.7-9.9,10.5-9.9h74v6.9h-68.8c-2,0-3.5,1.5-3.5,3.2L168.3,262L168.3,262z M62.1,265.2
		L62.1,265.2l69.1,0c2,0,3.5-1.2,3.4-3l0-5.7H62.2v-12.7c0-5.6,4.7-9.9,10.5-9.9h74.1v6.9H77.3c-2.2,0-2.9,1.3-2.9,3.1l-0.1,5.8
		h72.5v12.6c0,5.6-4.6,9.9-10.4,9.9H69.5C65.4,272.1,62.1,269.1,62.1,265.2z M66.7,284.8h159.4c40,25.7,29,91.2,24.1,112.8
		C159.5,395.6,84.5,347.9,66.7,284.8z M256,397.7L256,397.7c-0.4,0-0.8,0-1.2,0c15.3-17.4,53.1-64.9,58.2-112.8h131.8l0.6-0.2
		C427.2,349.2,349.3,397.7,256,397.7z M450.1,265.2c0,3.9-3.3,6.9-7.4,6.9h-4.5V244c0-1.8-1.5-3.2-3.4-3.2h-57.2v31.3h-12.1v-38.2
		H440c5.7,0,10.1,4.5,10.1,9.9L450.1,265.2z"/>
</g>
</svg>
